/* XPM */
static char *_efcb891f4b143a3b04b7fa774a744bdbZxkhw3wGdM5aokM[] = {
/* columns rows colors chars-per-pixel */
"64 64 179 2 ",
"   c #050402",
".  c #0C0503",
"X  c #0C0906",
"o  c #0E0C09",
"O  c #120704",
"+  c #190705",
"@  c #140906",
"#  c #1B0A06",
"$  c #140D0A",
"%  c #1B0D0A",
"&  c #1A1207",
"*  c #16110D",
"=  c #1C120D",
"-  c #161410",
";  c #1C1511",
":  c #1E1915",
">  c #220C06",
",  c #280D06",
"<  c #230E0A",
"1  c #290F09",
"2  c #211107",
"3  c #24120D",
"4  c #2B130D",
"5  c #24190D",
"6  c #291A0E",
"7  c #31150E",
"8  c #3A180F",
"9  c #241511",
"0  c #2B1611",
"q  c #241A15",
"w  c #2B1A14",
"e  c #251D19",
"r  c #2B1E19",
"t  c #311611",
"y  c #3A1710",
"u  c #331B15",
"i  c #3A1C14",
"p  c #331E19",
"a  c #3A1E19",
"s  c #2C2016",
"d  c #27211C",
"f  c #2C221C",
"g  c #332216",
"h  c #33231C",
"j  c #3B221C",
"k  c #35291E",
"l  c #3B291E",
"z  c #2E2621",
"x  c #2F2924",
"c  c #332621",
"v  c #3B2621",
"b  c #342A24",
"n  c #3B2B24",
"m  c #352E29",
"M  c #3A2E29",
"N  c #3D3026",
"B  c #37312B",
"V  c #3C322B",
"C  c #3E3631",
"Z  c #481D13",
"A  c #402016",
"S  c #42241D",
"D  c #4A251C",
"F  c #452C1E",
"G  c #4A291F",
"H  c #432721",
"J  c #432B24",
"K  c #4B2C24",
"L  c #442E29",
"P  c #4A2D29",
"I  c #443127",
"U  c #4A3327",
"Y  c #43342C",
"T  c #4B342C",
"R  c #43382F",
"E  c #4F3A2D",
"W  c #53352D",
"Q  c #433631",
"!  c #4C3631",
"~  c #453A33",
"^  c #4C3834",
"/  c #4B3C34",
"(  c #473D38",
")  c #493F38",
"_  c #4C3F39",
"`  c #533631",
"'  c #583732",
"]  c #513B35",
"[  c #503E34",
"{  c #533C34",
"}  c #5A3A34",
"|  c #533F3A",
" . c #5A3E3A",
".. c #653F35",
"X. c #603E38",
"o. c #4D4036",
"O. c #4A413B",
"+. c #4D4138",
"@. c #4D413A",
"#. c #554235",
"$. c #584136",
"%. c #57413C",
"&. c #53443C",
"*. c #5C443C",
"=. c #5B4A3E",
"-. c #61443A",
";. c #64453F",
":. c #64463E",
">. c #6A473D",
",. c #64483E",
"<. c #4E4640",
"1. c #5B4641",
"2. c #544A43",
"3. c #5F4A43",
"4. c #5A4B43",
"5. c #564D48",
"6. c #574D48",
"7. c #594E4A",
"8. c #5D5047",
"9. c #5D5148",
"0. c #5D534C",
"q. c #5F5652",
"w. c #664740",
"e. c #634540",
"r. c #674941",
"t. c #644B44",
"y. c #6A4C43",
"u. c #6A4B42",
"i. c #6E4F49",
"p. c #714D44",
"a. c #635145",
"s. c #6F5246",
"d. c #63544C",
"f. c #6C504A",
"g. c #6D524C",
"h. c #6B534C",
"j. c #70504A",
"k. c #73564E",
"l. c #79564F",
"z. c #625651",
"x. c #6E5650",
"c. c #6D5750",
"v. c #635A54",
"b. c #665C56",
"n. c #655953",
"m. c #6C5D55",
"M. c #675E58",
"N. c #6C5F59",
"B. c #715751",
"V. c #705651",
"C. c #745A53",
"Z. c #795D56",
"A. c #6F615A",
"S. c #706058",
"D. c #72655E",
"F. c #7D625A",
"G. c #7D615B",
"H. c #706662",
"J. c #726861",
"K. c #766B64",
"L. c #736963",
"P. c #7E6E65",
"I. c #7C6E65",
"U. c #7E736D",
"Y. c #815D54",
"T. c #805F58",
"R. c #81615A",
"E. c #87665E",
"W. c #816660",
"Q. c #846761",
"!. c #876B62",
"~. c #846861",
"^. c #856A64",
"/. c #836E67",
"(. c #8B6A62",
"). c #80726C",
"_. c #897069",
"`. c #8C726B",
"'. c #837771",
/* pixels */
"N 0 . . @ w s q ; f e * o X o - ; $     X @ . . o X $ e $ X $ o @ @ O O % L ] J 3 @ % # 4 t # > > > < @ @ . % p 3 @     .   $ 3 ",
"b h 0 % & 5 5 b n b e : - o o o X X X .   . . . . . ; % . X X X . . O # 3 w v p % # # # > > # # # # % % < O % p % O @ % % $ $ 9 ",
"b h 0 $ r s r b s d ; f ; $ X o * r v n h w u L ^ 9 f * . * * q h p w 3 t u w $ $ @ # # # + # < 4 4 3 3 u t t a 0 @ @ . . . @ w ",
".     X N O.O.v.V ~ @.( x f q : - q h h p t.x.!.!.v r 4 3 f n f.R.F.j.;.j r j j f b k r % % < < # # < % u j 7 J W T n @ .   . 3 ",
"X X . - 5.U.K.J.b.9.P.S.) f f ; r k p < < B./.W._.%.< < < p u *.F.^.T.E.g.S A A g / [ J 9 = 3 3 @ . . . 4 D j w.t.u.-.p 0 3 . % ",
"b s * @.D.m.4.9.0.d s f f e q * = q 9 % < ;.B.`.`.p.i 7 4 < < i } l.Y.(.Z.S Z G J n v r q h 0 3 3 @ % 0 u t [ f.*.k.;.W u 3 . @ ",
"f s e V / I o.=.V * o X q q = $ * e r < < j j ! W G t t a i 1 4 i S H T J i i j b V V c b h w r 4 9 p a u 4 | C.i.Z.*.' p @ % 9 ",
"f f f q ; = e s q ; q s s p 3 * e q q 4 # O 3 p a < # 1 y t 4 4 3 . . u p 3 r p f C Q n h h h J J ] v w j j H T J v 3 9 q @ 9 9 ",
"n.V q = $ * * e f z b s 6 w # $ = # = % # # 4 0 t 3 O O # # 3 0 0 % 3 0 0 9 3 % e b &.,.W h 9 j J Q.f.t.J P H ..J @ O % * r @ . ",
"a.z.f X . X q k n N N r 5 e c B Q M b J 4 3 0 0 0 u O O @ @ = p w q w < 3 w < # b h.u.;.;.M r n ] `.g.C.L p T >.K @ $ X X ; * . ",
"M.J.B X     h h h n N k e f 0.D.P.M.Q ! n 0 9 r % 9 3 9 b Y p h b q ; 0 < i y 1 h m.s.>.h.*.r * 9 r r I r J p r % $ $ . : O.b $ ",
"b c f q ; f V s b V n h f N 4.a.d.2.I I T k q w 3 = 3 w 4.*.F U J ; * & 3 T I 4 r ! { K L J 0 @ ; ; ; e = S p % X * ; * 2.D._ $ ",
"b c k k f b n e N k k l N &.o.Y / N g h g r q r w f n Q d.#.J E T &.m * @ w k w = p j t i i 0 r T T l v w y p = * : c : 4.m.<.$ ",
"k b s f Q ) @.M M R m q q f z ; ; s c ~ ~ ( Q k h / &./ R l n n M R b x f e ; q f r 0 % = 3 3 I { G D i 0 f q % r e ; $ * ; - X ",
"= = = b D.n.d.=.( 9.( = % q Q Q Q M f n J I I n ) =.! v w w h k n c b N f e * * 9 t 4 % % r ^ Q v i 0 = 3 f s $ = = : e * $ X   ",
"= * o * 5.d.4.&.R @.~ s J n Y a.A.h.Y n k h r V a.*.J t 3 q f c _ / R Q n r V Q r 4 4 w 0 | '.4.= # @ & & * * $ X ; 0.0.b * $ o ",
": : = $ c &.) 4.&.M p w h r u J t.c.&.M w & q ^ t.#.n h h J ) B I l l v v e r f l y t p u { h.*.p t 3 q f e 9 : d <.M.d.@.- ; e ",
"e o X @ * 7.4.d./ h p r 3 p j j l J T R M r 0 J E #.R c J n R n h u a t h w * f J a u h w j J L v h f s f q : : x 9.) +.8.B : N ",
"n f @ @ % c B R c h 9 0 w i y i 0 t j h n k c b M R n r b n b b p l t 4 t 4 3 3 r 0 q q * @ * e r e ; f b e : : : N V R +.( f s ",
"{ J 9 O O @ $ q ; f 0 w p w t 1 # % $ * e b R b f n f r b V ( Q v h p 4 < 0 p j v v r c c b f b b b m m z f @.a.9.f * * ; ; * * ",
"9 4 4 4 w % 3 3 r q h n b j i i % % $ * f r h n =.R 9 q c b V V b v l v 0 9 J { j t 9 f f B e * ; e z e d B d.a.4.c o . $ - ; e ",
"w j i A i 1 % 9 r k n b h t i i 0 % % * @ $ $ M m.d.r c f k n n b v j J a w :.x.! t 3 e h p h b b q 5 = f 2.D.n.&.b q $ $ e : e ",
"4 i 8 7 1 > % 0 4 j l h t 4 7 a j 3 = q 9 % = &.M.m.V e = = r k h r 0 1 t P u.Z.t.3 O O . @ = = q ; 5 * z 2.d.d./ s q ; X . . $ ",
"< 4 7 4 < # % @ O # 3 0 9 9 4 j v 0 4 0 p 3 9 ! _ 4.b = % = h h w 9 9 % t `  . .P 4 < 3 3 s b b * * * * q V M s e = $ @ $ $ * ; ",
"3 t i u 3 @ . . . < < @ . . n t.B.L O # 3 3 3 ; = h n c b h h n ^ &.n w 3 4 0 w 0 3 4 j a 0 * M - . q ; * q q $ % = $ $ q q ; * ",
"3 < 0 0 ; X . . O 3 $ @ @ . q h J 9 # # < w 9 @ @ 3 w w M l y t J T i 4 u u 4 i 3 O # 0 i > @ $ : d q e f s 9 $ % @   X R ( s = ",
"% + 3 9 % @ @ @ # > 3 q w @ @ # + O # 3 9 p w 9 3 3 = w p h h 4 a i < # w 9 w 0 0 p p j u 4 4 @ $ e q e s c r $ r e $ : T #.e @ ",
"0 0 0 r h 3 @ + # 2 = % < % # < # O . = r p r 3 9 p h j a u p u a 4 < < % $ @ % % H j j i i 0 0 4 9 r z b h k w l p r / { #.f $ ",
"9 u u j v 3 O O # & & @ @ # # % @ @ @ $ w r 4 # 3 p p u j a 4 3 0 i 7 4 4 v L n w q 9 0 u j p u p v M B C R f r h f e @._ ~ b % ",
"% 3 < < % % 4 # # & 3 % O % 3 # # < < 9 p 4 < 1 9 0 4 3 % 0 4 # < i 7 1 < H j a $     . r K K G v h d e : r 3 6 6 e ; q e b d ; ",
"9 % 0 3 @ % 4 < % % 0 3 % 1 0 3 % < < 0 h u t t w i 0 4 0 0 % % < i i 7 4 4 , 4 r = % % v K K K a 9 * q N c 3 w 6 x b n f f e f ",
"r ~ *.` j % < 0 4 < % % 0 4 3 4 4 7 4 t t v j H a t 0 i K J % @ % 0 3 4 4 4 2 3 w 9 < % h j j J q X X * z e & q = b n n h r k #.",
"f 0.1. .J = @ @ O O % < 4 < 4 , 4 3 t t 3 w % O . % 3 i S T h % O @ @ % 3 3 3 3 # $ X @ . o $ $ . . ; e ; X * f N O.R N f s #.=.",
"m v.=.! L % .     . # 4 4 4 < , i u 4 0 t r q ; 9 3 0 j J M v 3 % % % < 4 r u i w z q $ * : * % @ = r e * $ @ ; k Q b e q l W T ",
"m ~ n w h ; $ @ $ * 3 % % 3 # 3 p r = 9 w = f h p 9 t t j h p 0 3 3 t 1 4 r l u r e - - - e q 9 9 Y ) O.V = % $ ; b ; * ; l j v ",
"m z 9 * e f q 9 p M 9 @ % @ O % $ X X r h r L h 0 h n h p 0 3 % @ % 4 > # q c r 9 e f b d * * 0 H 1.1.&.V k h w 3 0 b n r q u w ",
"; e q ; M k q k % % ; % % @ . ; q w ; e n l T u 0 l ^ d.! 3 @ . . X 3 # # & f B z q 9 f d q q w J ^ ^ ^ N h j 0 < q z n f e 3 = ",
"* ; e * f = O 9 @ . $ ; $ $ X o 9 q * q c p p 0 S ! P t.Y % * r f b q O @ @ $ e q q q e ; ; = q b @.&.@.b . 1 < 3 h J b ; q = $ ",
": : - X   . f T Q c q e q q f C [ R m z q 0 w S } T j J r $ * e h v q $ q C x d s r ; s : * $ : q r r q q % w < 3 t l q * * $ X ",
"d e : o X X ; w h c r r 9 3 b 8.=.^ n < # 3 0 a D G v h w i T f g 6 h f <.'.H.z ; ; * : q q - * @ . % . $ % 9 = 3 4 w 3 X X o o ",
"q % $     .   @ 9 n n r # % I 3.$.v p 4 t S p i i i v h 9 3 w b k u j b 2.H.M.C b f q f d e e ; @ @ @ # % $ $ $ 3 3 4 3 $ $ ; * ",
"r 3 ; e v h p 0 q M Y a w q j K E T h j i S i t t i i t 0 @ 3 I V h n c Y ( @.N N b s f q ; ; @ $ $ @ # @ % $ ; q n e $ $ o $ o ",
"* @ = k n j a u u j h t 0 f h l M M r h u t t 0 u i 7 7 4 < < f f r e : $ * d f e = e b f ; : $ % % # # % 0 p v h ! f   . X .   ",
"r 4 3 h w p 0 % % $ @ = p V b f M p 0 p i j a p u u 0 < 3 v M V V c c b b b m b c c c x z ) =.` 4 O # % @ @ @ $ * ; * * ; = X o ",
"3 t u h u i j 3 = $ @ 9 w f h [ / 3 3 r p p p u u p v h q Q 9.~ n 0 f s n f - = q r 9 q b &.*.K t @ . @ @       9 h p p 9 3 3 e ",
"w p p r t i i 4 3 % % O @ @ w t.c.w 3 0 0 p p u v L Y ! b 0.D.4.n w q c b m b b s 3 = 9 Y ;.X.K u % O . @ @ @ $ p S S a 0 3 q f ",
"j i 0 t w 4 i i 1 % 3 3 @ O j :.h.S < # # 9 f h r f f m _ N.).D.b @ $ $ $ q : ; q 3 % 3 J ' } K w % % * * 9 9 = j a i w 0 % w h ",
"% > < > < 3 i H 0 4 0 0 < # i S W i # @ % f k r 3 9 q c | 4.b.0.N e s e e m B * - $ $ % t u 0 < # @ @ X X @ $ % 4 y 7 3 q = $ $ ",
"3 4 O . . p e.i.! @ O > < > # % 4 t w u u n R ( 2.Y p q w r b b z z Q _ h * m :   ; = @ # < @ @ # @ O q q * $ 3 p v p 9 @ X X X ",
"% % O O . 3 h J w O # > < < O O % 3 4 a u h v R 7.I 0 h l g V z $ = f R w & o : d e 3 3 3 9 $ % % . . b R w 3 3 q f 0 % O . X * ",
"> 3 3 w # @ # # O O # < 4 4 < < % % 3 u w p p V ) h = r q f k b m b M n h k = * d r q 3 w h * 9 0 $ % j K 0 @ % % ; 3 @ @ @ @ 3 ",
"2 & # % # # > # O . @ 1 4 4 < < 7 p a i p h b Q k s q 9 $ $ * ; Q J M n I b c c r f f p h k w p t 3 j D D t O 9 0 3 4 4 3 = & & ",
"= & O O O # # # @ O O # 1 1 # % u h h i p p s c Y l t w n ~ Q r f e s b V R b V V C b b R b 9 p w # v J H p % 3 0 0 y a 0 @ * & ",
"* q q % @ 3 % < < > < 4 4 4 w 9 4 0 3 # 3 w q e I l 4 < J I I q .   . q [ $.{ Q V s = = e e 2 6 3 @ # = w 9 @ % 3 < 3 % % 3 3 % ",
"% r s 9 9 h r 3 < 4 4 p b h n v n r p h b e ; q Y n p 4 t 4 u f 9 = % p W E #.~ r $ # u u = 2 4 3 4 4 4 4 % 3 9 = 9 9 % @ < < % ",
"3 3 9 r 0 9 t 4 7 w h h N R @.^ M r v ^ &.e $ q b r r w 4 4 6 r q < % 0 j l J f @ . . 1 < # % # 3 t 4 7 0 3 S w n  .` J # # 0 0 ",
"$ = r w 3 0 4 7 0 p b f f e * $ ; 9 l J / C q * ; * : 9 3 3 5 3 % @ $ . X @ @ . . @ 9 @ . O < 4 a i t 0 q U W 4 T } ` P # @ @ @ ",
". ; k k p w 3 y p 3 0 t h e q q e f R R R V f : ; : 9 4 0 h j p w 9 @ O % # % O + < 9 % O . # 4 i 4 % % h #.T w ` ' J L % O     ",
"* e e q s 9 3 4 0 # < 0 9 f M b f h k I N n k s s n g 4 3 t a h q @ $ @ % 3 3 9 j j J j % @ O @ r % @ % h I n r j j w u % @ @ % ",
"C e $ % = . # O . . % t 0 n V f v n M Q b e ; * * r 6 2 3 r k 9 9 3 r r @ @ 9 L W W K v r p 0 9 q 0 t 4 9 r f w w < # % 3 < 3 r ",
"; : * = * . @ % < % % t y K M f n ^ z.0.f * X X X q 5 = & e M w = = 9 9 % 9 r J J H L n h n 0 9 9 3 y 4 3 3 = * ; ; # 4 4 < w % ",
". @ % @ @ . . % < @ $ w w h f ~ 2.@.n.5.: ; = q = ; $ $ $ o 9 % % = 9 % % * 9 0 S K P p $ q 9 9 p S i @ # # @ $ $ e $ 3 % @ 9 @ ",
"c 9 9 % > < 4 4 . . X o $ q Q M.q.R ) M $ o - ; * $ * * * ; q = 3 = q q $ @ # < 9 w = % @ r r 9 t u 4 @ @ O . $ * % X .   q _ ^ ",
"r 9 ; % # > < # .       X q &.z.7.Q f ;       $ : * * o o = ; $ % = r = % . O . . % X . $ 3 3 < 1 4 < . .   . % 3 # @ . . * z c "
};
