/* XPM */
static char *b6438b69e4bf4c26eb3f719b53d41b1eV0BsJiKM1Qgd4rLF[] = {
/* columns rows colors chars-per-pixel */
"64 64 170 2 ",
"   c #2D2D2F",
".  c #2F2F31",
"X  c #3D3C3D",
"o  c #3D3E40",
"O  c #3F4042",
"+  c #444345",
"@  c #494644",
"#  c #4B4947",
"$  c #464648",
"%  c #47484A",
"&  c #4C4B4D",
"*  c #514E4D",
"=  c #53514E",
"-  c #4F4D50",
";  c #514F51",
":  c #4F5052",
">  c #545354",
",  c #595655",
"<  c #5B5956",
"1  c #565658",
"2  c #5A5758",
"3  c #57585A",
"4  c #5C5B5C",
"5  c #605855",
"6  c #615E5D",
"7  c #64615E",
"8  c #68625E",
"9  c #5E5E61",
"0  c #615F62",
"q  c #5F6062",
"w  c #646363",
"e  c #6A6664",
"r  c #666867",
"t  c #6B6966",
"y  c #666669",
"u  c #696769",
"i  c #67686A",
"p  c #6C6B6B",
"a  c #716B67",
"s  c #716E6C",
"d  c #6E706B",
"f  c #73716E",
"g  c #7A726F",
"h  c #6E6E71",
"j  c #726F71",
"k  c #6F7172",
"l  c #747373",
"z  c #797574",
"x  c #777975",
"c  c #7B7976",
"v  c #767679",
"b  c #7A7778",
"n  c #77787A",
"m  c #7B7B7B",
"M  c #817B77",
"N  c #827D7C",
"B  c #7F807C",
"V  c #84817E",
"C  c #88837F",
"Z  c #7E7E80",
"A  c #817F82",
"S  c #7F8180",
"D  c #848383",
"F  c #8A8584",
"G  c #878886",
"H  c #8C8986",
"J  c #868689",
"K  c #898789",
"L  c #8C8B8B",
"P  c #87888C",
"I  c #908885",
"U  c #918D8C",
"Y  c #8E908F",
"T  c #93918E",
"R  c #98938F",
"E  c #8E8E91",
"W  c #928F91",
"Q  c #8F9092",
"!  c #959393",
"~  c #9A9695",
"^  c #9B9996",
"/  c #979699",
"(  c #999698",
")  c #9C9B9B",
"_  c #969997",
"`  c #A29D9C",
"'  c #A09895",
"]  c #9EA09F",
"[  c #A3A19E",
"{  c #9E9EA1",
"}  c #A29FA1",
"|  c #A5A3A3",
" . c #AAA6A4",
".. c #A7A9A5",
"X. c #ABAAA6",
"o. c #A7A6A9",
"O. c #A9A7A9",
"+. c #ADABAB",
"@. c #B2AEAC",
"#. c #B1AAA4",
"$. c #AFB1AF",
"%. c #B4B1AE",
"&. c #B9B1AF",
"*. c #AEAEB0",
"=. c #B1AFB1",
"-. c #AFB0B2",
";. c #B4B3B3",
":. c #BAB5B4",
">. c #BBB9B6",
",. c #B6B6B8",
"<. c #BAB7B9",
"1. c #BDBBBB",
"2. c #C0BAB7",
"3. c #C2BDBB",
"4. c #C3C1BE",
"5. c #C8C3BF",
"6. c #BEBEC1",
"7. c #C2BFC0",
"8. c #C4C3C3",
"9. c #CBC6C4",
"0. c #CBC9C6",
"q. c #C7C6C9",
"w. c #CAC7C8",
"e. c #CDCBCA",
"r. c #D1C7C6",
"t. c #D1CAC6",
"y. c #D4CECB",
"u. c #DACECC",
"i. c #CFD0CA",
"p. c #D5D1CE",
"a. c #D9D2CE",
"s. c #CFCFD1",
"d. c #D3CFD0",
"f. c #D5D3D2",
"g. c #D8D5D2",
"h. c #D9D5D4",
"j. c #DAD6D5",
"k. c #DBD7D6",
"l. c #DAD6D7",
"z. c #D8D7D5",
"x. c #DBD5D2",
"c. c #D9D8D3",
"v. c #D9D8D6",
"b. c #DAD9D7",
"n. c #DAD9D5",
"m. c #DDD9D6",
"M. c #DDDAD6",
"N. c #DDD9D6",
"B. c #D7D5D8",
"V. c #D9D7D9",
"C. c #DBD7D8",
"Z. c #DDDAD9",
"A. c #DEDDDA",
"S. c #DDDBDA",
"D. c #E1D6D4",
"F. c #E9D7D7",
"G. c #E1D9D6",
"H. c #E1D7D8",
"J. c #E0DCDB",
"K. c #E1DDD9",
"L. c #E1DEDD",
"P. c #E3DCDA",
"I. c #E9DADA",
"U. c #E2E1DF",
"Y. c #E5E1DE",
"T. c #EAE2DF",
"R. c #E0DEE1",
"E. c #E4E2E2",
"W. c #EAE4E1",
"Q. c #EFEAE7",
/* pixels */
"w ^ ;.+.+...) [ ! ! ~ G e @ D X.%.;.+...:.+.o.;.A + x X.o.%.X. . . .| ` ` ` ) ! ! ~ ) w ; , D } :.:.+.+.:.#.| :.H @ w x N H ! z ",
"G 1.z.y.z.A.A.E.S.f.e.| c 4 ) 9.p.c.f.f.V.z.f.V.P $ W ;.f.e.U.v.J.J.J.M.S.J.M.p.9.y.| U 4 p | d.f.z.f.g.z.g.f.S.D 4 | 8.y.e.y.) ",
"c >.v.p.v.L.v.z.v.v.f.@.D e +.A.p.f.M.c.f.V.V.d.) > ~ >.v.0.g.f.g.M.M.M.M.M.z.p.f.Y.+.| s 6 o.S.f.f.k.z.f.z.M.f.F e 4.S.J.g.G.) ",
"c 3.E.z.z.S.f.p.p.f.A.9.~ e | f.v.g.A.v.f.A.R.q.! 3 D 8.f.A.p.v.p.p.g.g.g.g.f.p.f.f.e.;.( 4 o.z.S.z.G.S.f.S.L.0.~ z e.f.y.9.z.! ",
"x 1.U.f.f.v.b.U.f.0.v.f.| e ) v.M.p.f.p.y.A.V.>.L 1 m 1.f.E.p.v.K.M.M.M.z.g.g.z.z.9.L.<.| u ` z.J.p.f.f.y.S.z.1.F l 0.k.f.p.z.~ ",
"p %.v.v.S.v.p.f.z.9.e.0.[ e [ M.f.p.p.p.f.z.0.=.P 1 L | b.f.c.f.g.g.g.g.p.y.y.p.z.e.f.;.L l ! f.z.u.y.f.f.g.9.;.m l >.g.f.z.e.~ ",
"c @.p.v.E.L.f.z.U.z.v.0.) t T ;.p.v.v.M.A.e.;.o.v 1 L ! 0.e.c.A.g.g.M.J.M.p.y.f.g.z.y.@.U j ) 3.z.z.z.S.J.e.@.o.D F ;.z.f.z.@.L ",
"l L ~ ) ;.1.8.f.+.:.0.1.^ p H ! [ %.%.%.;.! p p l w m H L [ ^ +.>.1.8.0.9.3.:.>.1.e.e.) ) > ~ U  .%.%.;.%.U p s l N o.S.f.t.H w ",
"t t t p s f c D w f c m m x s e w 7 w 7 4 w y 4 > u p p p t w t z s f c N z s s x x v N N m s e e w 7 7 w w w w 6 z e z 8.~ < w ",
"4 4 4 w e p s f m f w 4 < > = = < = = < > , 0 0 2 > ; 2 e 7 7 f e e p s e e p z t e e w 3 * * 3 < , , , , , , > * 4 l w 7 6 e * ",
"> , < , 4 7 4 & = > w l D L U ! ! F H U m w ; + - 1 1 < 6 < = < < 7 7 4 < < 4 < , > 2 p m N D L H H H H H D V N , X > 6 6 6 l , ",
"1.1.;.| ) ! c 4 # s ^ ;.1.9.0.8.4.>.3.8.<.| D w > L =.+.;.4.3.:.%.X.` T U V w @ * e F } <.9.e.9.e.e.0.0.0.9.4.3.%.H > # U [ @.8.",
">.4.4.4.0.y.1.[ w ) 0.0.4.0.e.8.p.e.0.9.e.f.<.K j =.z.e.8.9.4.;.4.4.9.9.p.y.:.) > ! e.y.8.8.e.e.9.9.9.9.9.9.3.3.:.9.! p 1.f.8.9.",
"v.v.z.f.v.f.>.[ 6 ` p.p.9.f.v.p.M.M.g.e.f.b.;.v D o.7.e.p.y.p.v.p.c.M.g.0.1.+.` 6 ` d.f.9.e.d.e.S.S.S.S.S.S.z.g.f.3.U p | 9.f.e.",
"p.e.e.f.z.e.>.| l ` e.S.S.A.b.f.p.f.M.A.A.b.=.l / ,.f.b.v.e.0.v.y.p.g.g.e.>.@.X.x ! :.e.V.E.E.S.g.f.f.f.g.z.g.f.f.| F F 3.g.M.8.",
"J.g.g.S.A.p.1.+.H ^ :.y.v.g.z.v.c.p.g.v.f.e.O.m 6 | f.b.p.y.p.M.G.a.a.M.M.9.@.[ H ~ :.u.z.y.y.k.k.g.h.g.k.M.S.M.8.%.D 6 ` p.L.0.",
"x.a.x.y.z.A.>.^ V D 4.J.0.t.y.y.x.x.T.p.g.8.%.B @ U 8.p.M.g.y.D.u.F.u.x.W.t.[ ` D D ;.J.p.0.u.9.t.a.k.g.x.M.x.u.9.3.I = F g.k.M.",
"I.a.G.J.W.v.X.L l c >.M.p.g.x.x.9.9.u.y.p.0.+.c e ^ 0.M.J.G.x.G.u.F.u.u.D.2.R T f f  .c.g.g.G.a.r.t.t.9.9.y.y.t.3.#.F a ~ x.x.g.",
"I.u.a.y.g.f...H m B ;.g.g.x.u.t.x.x.x.G.g.f.| p B _ 4.M.g.a.g.u.D.F.a.a.I.4.~ U l l [ y.g.g.k.y.M.M.k.g.g.M.g.p.0.` N z ` 0.y.p.",
"H.G.L.y.i.f.;.T x x | 0.z.W.E.Y.G.J.g.M.0.0._ w B H ;.v.z.g.J.G.H.D.u.u.k.3.~ F l f ! 4.f.L.W.L.z.g.k.S.G.M.u.9.g.` x f U 3.z.v.",
"y.y.E.U.b.0.| ! x p G ^ +.:.;.:.<.3.1.8.=.1.) m D G ;.f.f.p.S.z.x.H.C.h.w.@.~ T x p c ! o.%.:.;.:.:.1.1.7.1.:.%.<.^ x l U 1.S.f.",
"| U | >.;.~ S ~ D k l l c c p j s x x x l G m t D G ^ X.o.) ^ ~ ` @.7.1.` P L ^ D l t p x x l s l p p l l l x c P L x x L | @.) ",
"l 4 t l v p r D m p p p n m p l p p h w t n D p Z Z v l l p w 0 0 p N Z p w h m v l y t c m l l h p p p u e p l p D l l D c v p ",
"w w p w w k y w p q w w k h 4 w e 4 q & 3 w l 4 n v 9 1 t p w y p w w p y t p t p t q w l k e w w w e e 4 > > 4 w m u p v w 9 y ",
"p 4 > 3 9 y p y 4 4 4 w 1 & 4 3 4 q > % : 1 > > 4 4 9 9 9 9 q q w w 2 1 9 9 3 1 & ; > 1 1 1 2 4 > 2 9 4 > & & & 4 > & & 2 e t y ",
"o 4 m / O.-.*.+.*.;.*.-.) m y O + > > > 4 e y p w t h h p w 3 : $ 4 y t v A D P W ! ( ( ( ( ^ ) o.o.+.+.X.o.| | ! / ~ K c p 1 $ ",
"1 Q :.6.0.9.6.9.8.9.7.9.8.;.^ r D ) o.o.+.=.;.:.7.7.3.1.1.>.;.+.d _ ;.;.;.1.8.9.8.8.9.w.w.w.e.e.8.8.8.8.9.9.8.7.7.9.8.1.1.:.L 4 ",
"q ..0.8.0.e.w.S.z.z.e.e.e.e.1.D ] 1.e.0.e.y.e.t.y.y.e.e.e.0.8.>.k ..e.8.8.9.9.8.y.u.d.f.f.f.f.f.S.v.z.z.V.z.z.f.z.z.e.9.z.z.o.e ",
"> | e.e.z.M.g.Y.k.Y.G.G.v.p.$.d | 8.z.f.J.Y.G.M.u.p.k.J.b.0.+.^ p X.f.f.k.T.R.I.g.g.x.g.x.g.g.g.y.y.u.y.t.0.e.y.y.M.k.y.g.g.+.z ",
"w ..p.p.g.x.a.k.t.x.g.M.g.0.X.p T >.e.y.g.G.g.u.D.M.G.J.M.0.X.! w [ 0.e.g.I.D.u.D.x.x.x.x.x.g.p.p.g.g.g.g.g.g.M.0.p.p.p.P.Y.&.c ",
"7 ! 5.p.y.a.x.D.I.P.x.M.g.9.X.l H >.c.M.M.P.D.x.I.G.g.g.g.0.;.| f ..i.p.g.x.u.u.D.x.u.a.x.g.a.y.y.y.y.y.a.a.y.y.a.y.9.t.D.a.' 5 ",
"< H 8.K.p.t.y.9.r.t.0.g.g.9...f s | y.a.g.k.D.G.x.u.u.a.a.9...T p [ 0.p.g.x.x.D.D.D.x.x.x.x.a.y.x.a.y.y.a.a.t.9.t.a.x.g.x.t.` g ",
"4 V 3.A.f.p.S.f.y.0.y.g.z.0.[ t a %.g.t.9.a.x.t.a.t.t.g.k.8.` M z  .5.G.x.t.I.D.x.x.x.x.x.x.u.y.a.u.y.t.9.9.t.t.x.t.r.a.x.t.` a ",
"> m ;.z.A.A.b.f.z.v.A.S.p.8.^ e N #.9.t.t.t.y.a.x.a.a.x.a.2.~ z a ` @.x.9.y.g.x.x.g.x.a.u.y.y.u.u.y.y.y.u.a.a.a.t.y.x.a.x.g. .8 ",
", c [ 1.z.A.A.S.L.A.v.f.e.9.) 7 M ^ @.:.5.t.p.x.t.t.y.f.y.<.~ N , T @.W.g.Q.Y.Y.M.M.M.g.p.p.g.M.p.p.p.g.g.g.g.g.M.g.g.p.y.0.[ s ",
"4 l c m T ! L ! L ! ! T ~ | ! e F  .%.X.2.z.G.p.M.z.g.M.h.3.( b > N ` :.o.X.` ^ ` ^ ~ U I U U ~ ~ ) ` X.;.1.8.0.9.| ~ ` ) L N z ",
"4 f f t l f t f t f c p t m D f c T U D T | | ^ @.+.=.1.7.;.W l 4 l U c l t j p l p e w u p s p s p p p l x m N U s e f s t p p ",
"< t l c m c p p f w 4 , 6 l c w V V N D L H G W D D J ! } ) D j > w K e l w s e w w 0 w p l v c N m x p t e e w t t p t e p t 3 ",
"> , 4 7 4 6 6 > w > # # > w w > f l l c m l l Z G D D D D m h w & > p & 4 9 9 1 2 4 9 4 1 > 1 2 > > 1 2 4 4 4 9 4 w t w 1 9 4 & ",
"4 * = < 4 m ~ ! | o...! e & > < l D G c n c l l 2 4 9 9 9 9 0 w 4 3 4 + 1 D L ~ | o.| E l 4 1 1 l x v m m v l k 9 1 1 2 > > w e ",
";.) m 2 U 0.4.p.e.0.A.0.D l ) :.:.1.6.1.1.9.8.:.{ p 1 O i +.*.7.:.{ Z 4 E 0.6.s.e.e.A.0.G l ) ,.1.8.8.1.6.9.6.;.{ p 2 + p +.*.6.",
"y.4.| l ! p.f.A.E.p.0.;.~ +.e.4.1.8.9.8.8.9.8.,.X.J v > l 6.q.d.f.8.o.x ! f.f.A.E.f.e.;./ +.e.8.1.9.9.8.8.q.8.>.| D l > l 6.q.d.",
"A.z.8.m D 0.v.A.f.f.e.| H ;.A.0.p.M.J.v.v.A.b.f.8.;.) y m w.V.f.A.V.8.m D 0.V.S.f.f.e.| P ;.S.0.f.b.A.b.V.S.b.f.3.=.^ e m 0.b.z.",
"f.f.9.x p 1.f.p.0.v.S...m X.L.z.e.f.M.v.g.b.A.b.f.8.| t m 8.V.f.z.f.9.x s 1.f.y.w.v.S...N X.R.z.d.v.J.v.z.v.b.z.S.0.| p m 8.C.f.",
"p.p.8.x p >.p.0.f.p.8.^ m +.S.p.0.p.a.p.p.g.g.g.z.1.U w m 3.C.V.f.p.8.z a :.y.0.g.p.8.^ m +.S.y.t.p.z.g.f.p.g.g.k.>.I 6 x >.g.g.",
"f.f.8.m x ;.1.4.U.f.3.T l | z.y.x.M.G.G.M.M.M.M.J.:.N 0 M :.f.g.f.f.4.c z %.3.3.Y.a.3.T z  .z.y.x.M.G.M.M.M.M.M.J.:.N 6 c :.g.g.",
"f.f.1.m c ) ^ ..0.e.9.^ c +.E.M.x.a.a.a.a.a.a.a.I.3.F w M @.a.y.a.a.3.M M ` ~  .r.t.9.~ c #.T.G.x.x.a.g.x.x.a.a.L.3.F e N &.g.u.",
"f.f.1.m c K c ! L ) | m l ;.E.0.N.a.a.x.G.G.D.x.a.3.F e N :.G.a.g.g.3.M c H c ~ I ` [ N f %.Y.0.G.x.x.x.G.D.x.x.g.3.I e N :.x.y.",
"z.e.+.m h m K D G G E x c $.f.A.M.D.x.x.D.D.x.x.P.:.I s s o.g.f.z.e.+.D l Z J D m K ! l x ;.f.v.G.x.x.x.D.D.x.x.L.:.H a s  .g.g.",
"e.>.! p 9 r h p l l l 1 y ;.V.z.x.a.a.a.a.a.x.a.u.&.U s e ~ e.z.e.>.Q r 4 y p y l l k 1 p ,.V.f.x.a.a.a.a.a.x.a.u.&.U s e ~ e.z.",
"^ G p w p m G D L L K 2 4 :.R.f.a.y.y.u.a.a.a.a.J.:.F 7 6 N ) ^ ^ G t 4 t c D D ~ K D 4 t :.A.f.a.u.y.u.a.a.a.a.M.:.F w 6 N ) ~ ",
"l p l H o.1.w.e.1.1.<.c w ..S.z.y.y.t.y.a.a.a.u.M.>.H e w x V c x p l H o.1.0.e.8.>.;.m e o.z.z.y.y.t.y.a.a.a.u.M.:.F e e x N x ",
"t t m ! @.1.9.p.f.0.8.H e ` f.g.u.y.y.y.a.a.p.p.y.2.! e , 6 p x p t m ~ %.4.9.e.0.9.9.F 6 ) f.f.u.y.y.y.a.a.p.p.y.3.! e , 4 p v ",
"@.@.:.3.9.e.f.M.Y.0.4.U t [ f.t.a.u.y.u.a.a.p.p.g.2.H e t m L ~ @.@.:.3.9.y.p.g.p.9.9.H 7 | M.y.a.u.y.u.a.a.p.p.k.3.H w e m L ) ",
"y.p.p.y.y.p.a.g.W.g.y.U 8  .M.0.a.a.u.a.p.p.p.p.S.:.N l ` 8.0.y.y.y.y.y.y.p.p.p.J.y.y.U 7  .G.y.a.a.u.a.p.p.p.p.S.:.N f ) 8.0.e.",
"y.g.M.x.M.G.g.y.p.a.x.I = ` J.y.g.a.a.a.p.p.p.y.z.1.H m ` :.:.>.p.x.M.g.M.J.M.u.x.y.p.U , ^ M.y.g.a.a.a.p.p.p.y.z.1.H N | <.;.:.",
"G.x.g.a.g.x.g.p.a.x.a.F e T y.2.g.p.y.y.p.g.f.f.S.3.c L ) ,.e.R.M.M.g.g.g.g.g.g.g.g.p.V t R p.>.g.p.y.y.p.p.f.y.M.3.c L ) ,.e.R.",
"g.g.a.g.x.M.M.M.g.J.g.C 6 F y.0.3.9.y.k.M.g.e.8.9.;.N ~ O.1.q.s.g.g.g.g.g.M.M.G.g.G.a.V 6 F y.0.3.9.u.k.M.g.0.4.9.;.m ~ O.1.q.s.",
"p.p.p.y.y.y.p.f.g.M.y.H t U 0.9.9.0.y.p.f.g.z.M.y.:.A K { ,.q.d.f.p.y.y.y.p.p.f.f.M.y.H t U 0.9.9.0.y.p.f.g.z.z.e.;.A K { ,.8.s.",
"p.p.g.f.f.f.S.A.z.f.8.U l D T c e t a f N T o.:.0.+.Z v E o.,.8.f.p.f.p.f.z.S.A.g.f.8.T l V ! N e t a f N T o.:.9.+.Z v E o.,.8.",
"L T ! ! ~ ) | X.o.X.) V p l u = s s s p w 7 w e ~ L m v E { { ) L T ! ! ( ) | ..| ..) D p p u > s s s p w 7 w e ~ K m v E { ) ) ",
"G G G G G G L E c K D x w r w w 4 6 w e e e u t u t v h L ! L P J G D D G K L L c K G c w e w e 4 6 w e e e t t e t v h L ! P J ",
"D D m c c m m m D L c h 1 4 > 4 w 6 4 4 4 4 4 4 & > p 9 m D m Z D D m c n n m m D L n h 3 4 > 4 w 6 4 4 4 6 4 4 % > p 9 m S m m ",
"9 4 1 3 4 w y y p p > 1 > q 1 w 4 4 4 6 6 6 , > . X y 1 h l y y 4 4 4 4 4 q w r h p : 1 > w 1 4 4 4 < 4 6 6 2 1   X e 1 h k y w "
};
