/* XPM */
static char *_3f53549527f4057ae5d54e8531caba5ES8cKpfU6G7pOdEv[] = {
/* columns rows colors chars-per-pixel */
"96 64 207 2 ",
"   c #7E3D21",
".  c #863316",
"X  c #84351C",
"o  c #8A341D",
"O  c #863A1F",
"+  c #8C3A1D",
"@  c #923B1D",
"#  c #853320",
"$  c #8B3622",
"%  c #853D23",
"&  c #8C3C23",
"*  c #853A2A",
"=  c #8D3E2A",
"-  c #933623",
";  c #9B3424",
":  c #943C24",
">  c #9A3C26",
",  c #9E3728",
"<  c #943D2A",
"1  c #9B3D2B",
"2  c #8C3F32",
"3  c #A33D2D",
"4  c #A23D31",
"5  c #854125",
"6  c #8C4226",
"7  c #864429",
"8  c #8D442B",
"9  c #874A2D",
"0  c #8D492D",
"q  c #944225",
"w  c #9A4325",
"e  c #9C4826",
"r  c #94442C",
"t  c #9B432C",
"y  c #93492D",
"u  c #9C492D",
"i  c #864736",
"p  c #8C4333",
"a  c #874836",
"s  c #8D4C33",
"d  c #8C4C39",
"f  c #944532",
"g  c #9C4532",
"h  c #944B33",
"j  c #9C4B34",
"k  c #944739",
"l  c #944D3A",
"z  c #9B4E3A",
"x  c #8B5234",
"c  c #8F513A",
"v  c #8D5C3E",
"b  c #955135",
"n  c #9B5236",
"m  c #95543A",
"M  c #9C533B",
"N  c #955A3C",
"B  c #9D593D",
"V  c #A04426",
"C  c #A14826",
"Z  c #A2452D",
"A  c #A9472F",
"S  c #A34B2C",
"D  c #A94C2E",
"F  c #AB512F",
"G  c #A34532",
"H  c #AA4634",
"J  c #A34B34",
"K  c #AA4C34",
"L  c #A34738",
"P  c #A44D3A",
"I  c #AB4D3A",
"U  c #B14D37",
"Y  c #B1463C",
"T  c #B24E3B",
"R  c #A45135",
"E  c #AB5334",
"W  c #AE5837",
"Q  c #A4543C",
"!  c #AC533B",
"~  c #A3593E",
"^  c #AB5A3D",
"/  c #B15535",
"(  c #B35836",
")  c #B3553C",
"_  c #B9563F",
"`  c #B45B3D",
"'  c #B95D3C",
"]  c #AC603C",
"[  c #B7613F",
"{  c #BB613F",
"}  c #9A4E41",
"|  c #9D5442",
" . c #9E5C43",
".. c #9F5C4A",
"X. c #B94F41",
"o. c #A35542",
"O. c #AC5542",
"+. c #A45B43",
"@. c #AB5C44",
"#. c #A35749",
"$. c #AD5748",
"%. c #A55D4A",
"&. c #AB5D4A",
"*. c #B35542",
"=. c #BA5545",
"-. c #B45B43",
";. c #BA5C44",
":. c #B35748",
">. c #B45D4A",
",. c #BB5D4A",
"<. c #A75F50",
"1. c #A95E50",
"2. c #9E6244",
"3. c #9F6349",
"4. c #A56145",
"5. c #AC6246",
"6. c #A5634A",
"7. c #AD6348",
"8. c #AE614A",
"9. c #AA6548",
"0. c #AF654A",
"q. c #AE6449",
"w. c #AD654C",
"e. c #AC634B",
"r. c #A0684D",
"t. c #A76A4D",
"y. c #AB6C4D",
"u. c #AC694D",
"i. c #B06047",
"p. c #B46245",
"a. c #BB6345",
"s. c #B46846",
"d. c #BE6847",
"f. c #B06049",
"g. c #B16349",
"h. c #B1644A",
"j. c #B4644B",
"k. c #B1664D",
"l. c #B4674D",
"z. c #B3644C",
"x. c #BA6048",
"c. c #BE644C",
"v. c #BB634B",
"b. c #B36A4E",
"n. c #BC6A4C",
"m. c #A76350",
"M. c #AC6452",
"N. c #A76950",
"B. c #AD6A52",
"V. c #AF6B58",
"C. c #B66250",
"Z. c #B36552",
"A. c #BF6753",
"S. c #BB6552",
"D. c #B26B55",
"F. c #B66B56",
"G. c #B76D54",
"H. c #B46B52",
"J. c #B86C52",
"K. c #BA6F55",
"L. c #BC6F55",
"P. c #BB6B54",
"I. c #B36758",
"U. c #B56C5A",
"Y. c #BB6D5B",
"T. c #AF7256",
"R. c #AF7659",
"E. c #B37054",
"W. c #BC7156",
"Q. c #B6735A",
"!. c #BB725A",
"~. c #BD7C60",
"^. c #C05F4D",
"/. c #C35E4B",
"(. c #C06547",
"). c #C1604D",
"_. c #C2614F",
"`. c #C1674F",
"'. c #C0644F",
"]. c #C2644B",
"[. c #C26A4C",
"{. c #C96B4F",
"}. c #C26150",
"|. c #C46553",
" X c #C36B53",
".X c #CA6D52",
"XX c #C26C5B",
"oX c #CA6F5B",
"OX c #CE7255",
"+X c #C3735C",
"@X c #CB7159",
"#X c #CF755D",
"$X c #CF7958",
"%X c #D27357",
"&X c #D57C5C",
"*X c #C57463",
"=X c #CB7564",
"-X c #C07862",
";X c #C27A64",
":X c #C47B62",
">X c #CC7A64",
",X c #C3776A",
"<X c #C07D6A",
"1X c #D27762",
"2X c #D47964",
"3X c #D27C6B",
"4X c #D68570",
/* pixels */
"K t O.! H _ -.J _ T *.`.U =.,.*.*.! ;.@X*.c.`.;.v.;.;. X-.>.-.*.) ;.K ).,.*.,.;.).).*.).,.) ,.;.*.,.*.^.}.=.}.;.=.=.I ,.).) *.I K *.t ! `.! ! -.I I O.L S.g t J g $.g # ;X@.3 Y L O.I g o.O.4 Y ",
"G q j u - t r q ; > t R > H K G t t u ! q t t u t t t P : t q t G G 1 J t t 1 t t t > G G 1 t G t t 1 G G t G t g t 1 J P g g t t t : t Q t q j - & < < @.r = < = f < $ D.M - 1 r h L 1 z Q < g ",
"l.@.9.+.Q Q M 4.J ! ~ 7.! >.@.j.5.h.@.l.Q +.~ 5.~ ~ ~ g.n ~ @.5.i.@.@.g.Q @.j @.Q j Q Q ^ @.Q @.>.@.@.@.&.g.@.g.@.Q o.@.g.g.@.7.P.h.l.J.J.J.l.J.G.9.7.H.+XH.6.6.N.6.@.>.:XD.&.%.3.3.C.>.C.F.&.%.",
"5.+.4.B ~ ~ N y.R @.~ 4.~ @.~ q.~ 5.+.5.Q ~ M 7.~ +.@.l.Q +.@.q.+.Q @.5.Q @.n q.@.n @.~ +.@.n 5.%.z +.M ~ %.M %.5.M +.+.+.9.~ w.5.h ~ ~ B +.b B u.B b  .M m m m r.s y z l h h s v x Q P z | m h ",
"8 7 0 0 f f 9  .= f 8 s r f 8 z y z j Q j j y M r y y n 6 y y f 8 5 y h 8 b 6 M n 8 n h h b 8 n h % 8 8 8 h % h z 5 y 8 6 h % z M 8 M b z m 0 h 4.b s m h s l m T.m z B c s z 8 N x z j s m h h ",
"+.+.u.w.g.g.6.D.@.g.9.H.@.j.7.H.Q O.O.j.O.@.Q @.>.>.>.P.@.z.>.z.5.@.5.H.7.l.@.H.J.h.b.J.J.H.h.J.J.7.l.H.J.H.l.W.H.5.7.7.7.9.+.w.H.7.l.Z.H.H.9.w.G.w.B.D.U.6.%.6.Q.u.H.B.R.T.P.C.D.6.w.&.6.t.@.g.",
"t r Q z 1 g h f L L j Q < L P J P g J -.J ! P J L g g ! g P L J t j q ! J j t j P P j Q Q j P P j f r Q Q j P P J j f P P u j J f P u j O.j f j j f z f &.f < f < y g %  .m I I Q n z j B M t I ",
"L g @.O.1 L Q f I L P @.< G P g g - < I < J P t L t 1 P t P J L g L : ! I G G t G L t I I 1 L t J P t O.-.J O.! g P g ! ! g I P < ! < J -.J g g g g f < A.P P O.j O.Q X %.j I I P Q Q P &.@.g *.",
"*.S.>.$.,.I C.>.*.|.g.S.,.I v.XX>.@.>.v.-.O.:.S.@.>.:.! S.@.j.XX|.2X1X,. X,.,.|.>.c.c.v.c.,.c.oX X>.S.v.S. X-.S.>.>.*.-.v.>.-.>.-.I O.*.-.O.! ,.S.@.$.O.:.C.$.o.*X@.,.}.>.@.O.O.Q.M *.=.! @.@.Q ",
"< g j = t - h f < g r 8 < - j @.= f r 6 j r < Q f f j y j y j Q : j g : u q u P P Q Q P Q P Q x.t < < < j g < J f f t t J g t j j < t t t u < g Q f r < f z r r q.j I ! Q Q j n B % : - $ y y 8 ",
"g f ~ y f y b M g g M h f j M w.0 B h 0 +.b 8 4.z b M  .z b M B n n j Q n n n ~ Q ~ Q Q Q Q Q 5.j n y n ~ n M +.n M n M +.M n +.~ n Q n Q +.M ~ 7.Q M M M +.M M B.+.@.@.w.w.o.7.Q.y.l.>.w.E.E.Q.",
"+.M E.+.Q +. .6.+.Q E.t.%.w.+.9.+.6. . .9.+.M 4. .B +.E.B 4.+. .9.+.+.D.~ +.M +.4.5.+.+.5.+.~ 5.+.9.M 4.w.M %.%.~ +.M +.9.%.+.+.+.~ ^ Q +.u.5.4.u.%.4.+.+.4.+.4.w.%.Q ~ y.t.Q 7. .2.@.Q 4.t.+.5.",
"r % ~ y r y 0 0 6 & B m y f 5 % 0 5 0 h 6 6 8 % 0 6 8 ~ 0 b 0 5 0 6 6 M r 8 & r y y 6 r j y 6 6 8 z 6 z n % 8 8 y 8 & 8 n z y y y 6 y 6 r n y y b 0 h y y h 6 y j y 6 5 x x & t h h h 0 x N y g ",
"! P l.@.O.O.q.~ ! P 5.9.Q @.+.M @.j @.b.Q ~ j.Q @.@.@.H.g.h.@.@.@.@.@.l.g.@.^ g.@.@.Q @.g.@.Q ^ @.&.@.g.l.@.@.g.>.&.@.&.S.S.z.l.j.@.s.-.@.i.@.i.h.@.i.h.h.h.@.g.v.>.@.+.6.9.! -.P.5.5.+.4.u.@.x.",
"I Z Q Q K K p.j I K R Q Z K x.Q ! L ) *.K ! ;.) ) ) *.) ;.! ) ;.L ! ! I *.L L -.J ! Q I ! I I -.P L I I ! I L -.L P P I O.! ! -.` E ` ! E K G ) ! S J Q ! ! J Q -.J ) I P P H L l.g G K j P P P ",
"Z > > t > ; ! : Z 3 : u @ > -.t 1 G Z 1 > 1 G I 3 G K > H > G *.> L L : I t L :.1 L L G t 1 L ,.P g P G L P 1 *.> G L L L g L *.! G ! ! K G G *.! t Z G J I G Q O.G ) T G L K G H.y I =.! Q P j ",
">.>.v.! >.>.v.O.>.-.x.O.P.v.P.x.-.$.A.>.:.I C.:.O.:.>.C.C.S.A.A.>.S.C.XX>.C.C.+XA.S.S.S.S.A.XX=XXXXXXXXXXXXXXXXXA.S.A.Y.A.S.C.C.+XP.A.>Xg.S.S.S.A.S.@.A.j. XS.XX+Xl. XXX+Xl.S.v.F.!. XS.4X7.P.A.",
"y R ^ j @.Q Q j j j Q g @.j Q Q Q P @.Q Q j o.z j j z z Q Q Q P j z j o.h z f z f f h h f f f h f h j j h j z z j h j z z h f h f 8 8 %.m m M h n f 8 M f z f z M 8 j j B s P j s h j f 6.7 z h ",
"0 ~ 5.M 9.~ ~ +.n ~ ~ n +.M n ~ M M M h M h z z z h h h M M M M M M M +.M M h b M B +.4.+.M M M M M M B B M B B +.+.+.%.+.B B +.M m h w.4. .4.M 6.M M 6.M  .M M B s M M 2.m +.Q N c M z 6.s  .M ",
"+.b.b.~ b.5.q.J.5.J.H.7.b.7.5.W.h.J.b.5.b.5.5.b.+.~ ~ @.5.7.h.b.5.q.9.J.7.k.9.k.0.q.b.W.E.k.0.b.q.7.q.k.0.q.q.k.b.b.b.b.b.0.b.E.E.6.9.B.t.B.w.D.!.w.u.Q.w.w.H.9.E.9.H.w.N.6.l.7.N. .@.+.N. .B.9.",
"t u u o u < u G < P j u u t t Q t R J J J u t ! w w t u t t J ! : r q j q r q R q q q t r q q u u t t t t q q u t t t u t t t j j & j = r g = Q Q y f j f r j u Q g P j j 8 g < z % : $ 6 6 f < ",
"! I *.I *.! ;.*.I *.*.;.K ! *.,.K _ ) ;.) ) E a.) ) _ ;._ ) _ a.) -.` a.E ) ) a.*.) ) -.` ! ` a.;.*.` ;.-.` ` ;.;.*.*.;.;.*.*.-.>.!  XO.>.>.J v.v.-.-.-.S.:.-.:.v.-.,.-.>.O.=.! l.o.I I O.>.:.:.",
"*.K ,.;.*.I ,.) T T ;.|.K *.;.*._ _ _ {._ ;._ ,.) ) _ ;.;.) ) ;.;.a.;.`.` ;.*.].` ) *.].,.) ) ;._ _ _ ,.,._ _ ;.;._ _ ;.;.;._ _ *.-.>.-.|.I I O.*.*.*.) |.*.I *.*.! ;.) -.! =.T -.O.T I >.S.I *.",
"G - I L - o G > 1 : L -.: t G : t > > ! > t t t w > t G G t t t > q > G > t > t > : t Q K t > t > > t J K Z t S Z t > t S t 1 > & j o r @.$ J q t J g t >.g - t j t L G j f I 1 y y 1 > ! @.: g ",
"@.@.h.b.h.h.l.5.+.n 5.l.Q Q @.Q h.~ ~ J.~ 7.l.7.n j n Q ~ ~ Q Q n M Q ~ @.@.@.l.~ n n +.7.5.@.5.7.@.@.5.5.~ Q @.h.Q g.7.~ 7.7.@.5.u.q.+.!.q.4.9.q.q.@.Q J.5.Q +.u.5.@.5.u.9.^ Q 4.m Q @.6.B.H.&.",
"b b M B M B +.+.b n M B +.~ +.u.M M z B n M M 9.%.+.+.%.+.M M +.M +.+.+.4.+.+.u.B M M +.+.M M +.+.~ +.%.+.M M %.9.M +.+.M M M +.4.m B N 4.M B m 4.b M n 4.B +.M ~ n j n N N j h  .N f n m m +.M ",
"8 6 y f 6 r j n % y 6 % y 8 6 ~ 6 z 6 y h f 6 @.y y f f 8 6 8 z 6 f f f f 8 8 n M M M Q j 8 y z z z n M z h h M %.j j M n f 6 M B % y b b y ~ b 4.8 h h f y n 6 B h r y y s g f M N y g b h M j ",
"l.x.P.P.g.>.l.S.g.S.x.>.x.@.O.S.Q @.Q @.@.@.Q P.>.>.j.l.j.g.j.S.>.l.j.j.l.>.>.S.S.S.S.A.l.@.>.S.S.l.S.S.l.g.g.S.P.S.l.j.A.S.@.+X+X@.h.b.J.h.W.J.+Xi.l.g.v.g.v.@.b.5.^ @.9.7.>.x.q.5.-.-.H.J.g.g.",
"G G ! ! G t Z G G t L ! Z t G Z ! L L -.G I ! ! L G G K K L G G G G t G K G G L Z t t G G t t G G Z t Z G G Z Z Z G G > G K Z I I G t t ! t t G Z t t > ) L G G G t 1 Z j j H H P : G ; J O.- G ",
"Z t K ) K Z G G G > K ) 1 1 G 1 K > t ) > Z D Z Z t Z Z K A Z Z Z Z t Z K K Z K G w w Z K K A K K Z Z Z I I I K K E ) Z Z ) K K Z L G t -.I G I L I G t ,.I G K K G H K Q R U U O.j K ; I >.G *.",
"O.Q O.>.-.! -.>.>.-.>.v.-.! O.-.` ! ! a.! ` ! -.! ! ! ` ` ` -.a.` ` ^ ` a.p.-.a.a.` ! -.-.-.` -.;.-.*.-.;.a.a.-.c.-.a.-.` ;.*.-.! ^ -.! v.v.v.>. Xv.>.! c.-.! Q ! R K E ~ ^ ) ` @.h.I L @.@.-.S.",
"z r r g r r j Q r j r = j y r Q = j q y y q & Q u u y r q 6 r j q q r q u q r u Q j u u j u r u j n j u u u u u P + u u q q q r j 6 j y r y n & @.y j g g y j & j r q r y y g j h H.r g M % j j ",
"l | m l | M l | p | | M | l l 6.l z +.o.h +.h +.M h &.o.z z f %.+.z  .m l M s M %.M +.M | +.l M +.l  .M | %.l M +.M l M | M M M %.s M  . .l +.h 6.+.+.M %.M | M 6.+.m m  .B b b m +.h M  .m 6.%.",
"6.%.M.D.%.&.M.%.o.+.m.I.6.%.6.6.w.l.@.Y.l.7.@.l.@.@.@.l.w.@.7.Z.%.%.+.%.%.+.%.9.%.%.+.%.9.%.%.+.+.+.+.6.6.%.6.6.w.&.+.+.+.+.@.w.+.M +.| M.| o.+.&.+.&.+.M.+.&.9.w.t.6.6.w.+.B +.6.6.6.6.B.M. . .",
"q o g Q & & u X = . q P : : y + : q . E J q t u t u @ J R w R u : u + u u + j t q u : j R q R r q y + j j + u u J J u u t t u R r u u q Q r q R j u P u P q t t g j z z z f r j z f z h o.+.= f ",
") J *.a.E E ` E K S ) >.! E ) E S F V { ` E ( ' / / S ( ` F ( / D E S W W S ( W W ` W a.a.( a.` p.` E a.a.E ( [ ` ` ` a.` ( / / -.` ` E d.! ! p.a.` a.( ;.K E E Q O.$.O.$.! P O.:.$.@.Q :.C.O.$.",
") ` ` *.*.) *.c.K ` *.` ;.! ! a./ ( ' ' F ' F ' ( F ` ( ( ( F ' ( F ` / / ( F ` ( E ` ` ` ` E ` a.F W ` ` ( S ( ` / / ` ` / D A [.E ! ! ` E ` K a.) ) E ` E / K ! O.! P ! Q J J -.C.O.Q O.P O.P ",
"- t > : 1 : - I o j t > g > - Q w w E S @ S > K S @ E S Z S w ! S q J t w S @ S w @ S w w t + w S + q q w u + w E u w w w w w : p.q j G G t R : O.S t q G w t : Q Q f r f f < $ - P < f f < g < ",
"%.+.&.&.#.o.#.Z.%.&.M.w.&.%.&.C.@.@.g.S.g.n.g.P.@.@.g.g.g.@.@.S.&.@.7.&.@.@.Q @.@.Q @.@.+.o.Q @.l.@.@.7.7.l.7.l.C.7.@.@.@.@.@.@.!.9.w.w.U.w.Z.&.Y.w.w.@.Z.O.%.o.C.H.7.@.l.l.+.M n @.+.o.&.w.w.&.",
"%.z <.U.} l #.| %.z #.<.| | %.| o.+.h C.&.M o.+.+.&.Q w.&.z @.+.o.&.M &.+.z +.M Q @.M %.+.z +.| l +.z M M z %.M M M o.+.o.M z | | | l l m.| l #.| z | | %.} #.| z M n M +.+.M h | M +.h | B.M +.",
"l } } #.p l p p k 2 } #.l p k p l h 8 M M f M h h o.= M z h z M M j n z +.h h h h z M = w.h 8 z p z l h 9.l h M h h h z M z h z | a l * %.| p | | l #.k | Z.k z j 8 h y M 9.f 8 h z h 6 h w.h M ",
"M.&.Z.Z.Z.Z.I.Z.U.Z.Y.Y.I.Z.I.Y.7.@.g.z.&.+.Q @.+.+.Q @.@.g.+.P.@.@.+.&.z.&.@.l.l.g.g.7.P.l.l.C.H.9.l.l.J.l.J.l.P.@.@.z.@.g.z.Q &.6.&.+.I.o.%.F.I.Z.M.w.P.P.>.C.@.@.Q n +.7.z.+.@.H.&.+.@.J.o.+.",
"P t P t ! L -.Q J G G G J t J -.J S ! S J J w >.u q u t t E t -.w u : S t S w W J w w S w S R S W q S u u t E w c.t u E t K ) : ! ! t u Q q Q t ! ! t J ! Z G J J O.t u t t O.J ! j.I P J Q P j ",
"Z : t t Z w K Z > t w w G t Z ) Z C C w D S V [.D C K D K E C ` S S C S F C C / ( D D E E F E F [ S E F E F ( C { S C F D / / V d.W S E ! E ! w ( ) A A E D Z S I -.I I I I *.P L -.L L L L O.G ",
"a.-.;.[.` -.;.a.*.a.a.a..Xa.-. X` [.` p.[.` -.[.-.d.` a.[.` a.d.a.` (.( {.W a.a.d.[.[.` &Xd.a.d.d.[.d.a.$X[.d.a.a.[.` ` [.[.' a..Xc..X[.a..Xa.a.[.a.[.( a.OX;.;.a.>.c.>.,. X>.-.,.S.*.O.-.>.oX:.",
"q r y Q : r r u r r y u j q & q & j & P ^ q r q : u & y R & u r q + u o ^ + r q + q t . -.q + q + r q + ^ j q r q ! u q ! J @ u u q j y u @.r u u q Q : j a.u G P r R q q Q u u P j g r u j @.f ",
"| l | %.| M | | o.M | %.o.M | | | | | %.m.#.| | 6.%.%.#.U.%.&.6.&.M %.M Q.+.9.%.%.%.9.+.Q.9.%.6.%.6.w.+.D.B.H.9.w.Y.Z.9.F.H.@.w.%.B.+.+.m.!.%.%.%.9.I.+.M.!.M.Z.b.b.b.5.5.b.b.b.w.+.H.+.+.9.H.+.",
"I.o.M.&.I.#.M.6.M. .%.I.<.&.I.M.U...B.m.%.M.%.B.V.| m.| B.m. .m.D.6.%.%.Q.6.6.6.D.6.6.B.6.M.B.6.U.6.V.6.%.6.U.%.B.6.6.6.6.B.B.%.| <Xm.M.%.%.%.B.#.M.<.<.m.#.<.M.+.E.q.0.9.+.D.9.u.+.:X9.9.b.D.4.",
"< - 1 o < f # r f # = r $ f $ j Q 5 8 % % 8 % 8 ~ 6 6 O % y % O r j O 6 r & r 6 n r r & Q y r 6 b y y 8 8 8 6 6 r ^ 6 r 6 q q r % | = l k 8 p l * | z k z 2 z = 6 y n 6 y 6 y y 6 O 7.6 r n y r ",
"T I I G I P j @.@.Q Q ! ! O.! >.l.~ 5.Q ^ ^ R Q L.i.p.^ p.a.! ! ^ -.J ! -.^ ! Q v.>.` ! c.p.` ! 5.5.~ ~ ~ g.@.^ Q n.^ a.-.a.a.-.@.J.@.l.@.@.o.Q j @.@.O.>.@.XX-.@.~ 7.Q @.Q @.^ @.Q +X@.@.l.g.>.",
"c.c.:.>.>.Q Q >.Q @.Q O.v.O.O.-.>.^ >.Q n.-.E ! ! ! -.! a.,.L ! *.) ) ! a.`.) ) ! -.! ! -.,.) Q ^ -.J Q Q c.-.Q Q -.! >.! >.;.! W ` E W E ` -.J E E ! E ! ! `.! O.Q @.O.O.O.>.! $.! -.O.! ! :.:.",
"r r & j j % & & X 8 % 6 @.& = < $ - < o ! t & < $ t < < P L < L 1 - 1 - t I : t 1 I t t 1 ! G t t P < t < O.J t j t t t $ t J > w e w q @ S W e S w J t q w ! : j < j P r g o.f j g : g < $ P P ",
"4. .b B.Q.6.y.6.4.B. .4.~.+.9.9.+.7.@.Q !.l.7.g.Q 7.Q Q 7.@.o.z.@.@.z.Q @.C.@.j.z.+XC.z.@.XXC.C.7.Y.H.l.@.!.P.l.H.9.Z.7.@.l.J.7.l.b.W.h.~ h.J.5.l.@.!.H.7.7.!.7.H.%.D.U.+.&.I.6.I.I.%.Y.Z.o.Y.Y.",
"t.m s  .2. .2.N 6.6.m m 4.m M  . .w.M | 9.6.+.+.6.H.| M +.M M +.l M | h l M M | l %.| h h M l l z +.%.M l m | M M l +.m m m m s h M H. .M b l h l s 6.M l l m l m m | %.a s d s l m l B. .h | M ",
" .7 5 7 5 8 7   B s 6 8 6 h 6 h m  .7 m s m m h m M 7 8 8 5 0 5 8 M h 8 h s h 8 8 m M 8 h h h z h b %.h M 8 m b s h +.8 s 0 7 8 p l M.m | l s m l d ..d d d i a d m c  .s s p s p s s 6.m s s s ",
"H.n &.@.Q g.+.Q g.j Q @.P j.P @.7.G.n H.Q H.l.@.H.b.%.l.l.7.J.5.7.!.7.7.H.7.l.+.+.l.!.l.!.b.W.!.l.z.+X7.J.+.H.H.%.9.Q.M 4.4.+.H.l.H.:Xw.Y.w.9.!.B.6.Q.%.V.B.6.M.+.9.+.D.B.D.4.B.w.w.w.Q.%.w.&.Z.",
"I ! P P -.|.1 I H H H H H |.H G K Z ! G G >.J t K J J G S G  XZ ) *.! K K ;.a.t ! K G Z G t ;.! K I K G K Z c.-.Q >.-.-.Q P p.! w K A Z K t Z  XJ -.E J Q P R L.P P J j g ! < @.A.J J ! O.! J P ",
"G I 1 3 I =.> H 3 H H H H /.H K K Z U Z Z _ I Z K Z I D Z K ;.V U / _ U K ;.;.A U K H K A V _ D U ) ) ) ) K ].;.) ` ) ;.! K ;.` D / / / ' / / OXE ` ) E ;.K E [.-.*.*.Q ! *.G *.,.G I G G G 1 G ",
"@.P.O.@.>.v.-.,.:.|.S.-.>. XO.>.;._ {.;.;.].].` ;.) .X;.;.a.`.) ;./ .Xa.I (.a.) ].' ,..X;.;..X;.].{.{.%X{.]..X{.a.a.].OX[.a..X[.;.].a.a. X;.*..X`.a.`.v.#X-.>. X>.p.>.! v.a.! -.;.E a.) *.`.! ` ",
"z 9.h j y f j g y @.Q f j j 8 y t S ` J J J R t J t p.E E ^ ! R J q a.! : J u t t q t ` q J E u t S S ! w u u J u w G p.` J J J J P j P Q g q J r & t < -.< r f y u j q ^ Q P R j q Q u !  Xu t ",
"s 4.s m 0 h b h 0 +.B h m m N N n R @.R R u ^ n ^ n b.^ ^ 5.^ 5.@.j J.5.n ^ R ~ @.Q ^ J.Q 7.g.g.5.^ ^ s.R ^ ~ 5.5.R ^ n.b.5.@.5.&.+.| #.%.%.o.&.&.l %.%.,X<.M.M.M +.~ b b.4.5.+.~ ~ 5.n 5.!.n j ",
"4.D.9.w.@.H.H.7.@.H.H.9.w.9.Q.u.l.h.H.+.5.Q +XJ.q.5.J.@.5.+.5.b.5.~ H.h.@.5.+.b.+.M +.5.Q +.~ 7.h.~ +.@.M +.~ @.J.Q Q @.@.+.Q @.G.w.6.6.B.M.6.6.I.%.m.%.Y.&.<.#.B.Q.u.4.E.t.w.9.+.D.G.%.w.F.9.H.",
"t t t g 1 *.K 3 G G G t f f >.r f g j : j : >.O.r y f < f $ j Q < r y y y = = Q r r j r j r = Q @.y j f f f r f j.g j g g J t f n y r y r r r 6 @.j g r f r r & M Z.z z z j h h % o.j f z f j z ",
"3 ; , ; ; X.3 ; 3 ; 3 G G L  XG L P O.P >.P XX>.Q -.O.O.>.P S.XX:.XXj.C.S.O.@.=X>.>.XX:.XXC.:.=X3X>.Y.z.A.C.>.>.XXO.:.$.O.:.P j j.] 5.s.s.s.n.p.a.-.W W ! a.a.-.O.Y.o.+.o.%.%.%.o.*X&.Z.XX&.&.o."
};
