/* XPM */
static char *_263678c68e04cdeec7e69d6ca9c2150Ugqmd0OThIlTwfMY[] = {
/* columns rows colors chars-per-pixel */
"64 64 173 2 ",
"   c #030201",
".  c #0A0604",
"X  c #0B0906",
"o  c #0B0608",
"O  c #0D0B09",
"+  c #140404",
"@  c #1A0404",
"#  c #130A06",
"$  c #1B0807",
"%  c #1D070A",
"&  c #120D0B",
"*  c #1A0E0C",
"=  c #15110E",
"-  c #1A120E",
";  c #140F10",
":  c #161211",
">  c #1B1513",
",  c #1D1916",
"<  c #1B1718",
"1  c #1E1A19",
"2  c #240303",
"3  c #2A0404",
"4  c #270907",
"5  c #2E0805",
"6  c #230C0B",
"7  c #2B0D0C",
"8  c #310707",
"9  c #350C0C",
"0  c #390D0C",
"q  c #23110E",
"w  c #29110D",
"e  c #30100F",
"r  c #231512",
"t  c #2B1512",
"y  c #221A16",
"u  c #2C1A16",
"i  c #221718",
"p  c #231D1A",
"a  c #2B1D1A",
"s  c #321613",
"d  c #3C1414",
"f  c #351A15",
"g  c #331E1B",
"h  c #3B1B1C",
"j  c #26211E",
"k  c #2B221E",
"l  c #33221E",
"z  c #3B231E",
"x  c #251F20",
"c  c #262221",
"v  c #2C2522",
"b  c #2D2925",
"n  c #2D2A29",
"m  c #322622",
"M  c #3C2523",
"N  c #332A25",
"B  c #3A2B26",
"V  c #332D2A",
"C  c #3B2E2A",
"Z  c #35312D",
"A  c #3A312A",
"S  c #38312D",
"D  c #3F322C",
"F  c #3B342F",
"G  c #3E352D",
"H  c #3C352E",
"J  c #3B322D",
"K  c #363331",
"L  c #3B3731",
"P  c #3C3532",
"I  c #3C3836",
"U  c #3D3935",
"Y  c #3F3B38",
"T  c #421110",
"R  c #431513",
"E  c #451416",
"W  c #481716",
"Q  c #43171A",
"!  c #481518",
"~  c #471A19",
"^  c #441E1D",
"/  c #481918",
"(  c #4A191D",
")  c #43221F",
"_  c #441F20",
"`  c #541F24",
"'  c #442321",
"]  c #452122",
"[  c #492221",
"{  c #4C2421",
"}  c #492222",
"|  c #422B26",
" . c #422B2A",
".. c #502624",
"X. c #5A252B",
"o. c #552A28",
"O. c #532D2A",
"+. c #522A2A",
"@. c #592F2C",
"#. c #40332B",
"$. c #44302A",
"%. c #41322D",
"&. c #42332D",
"*. c #47322C",
"=. c #40352D",
"-. c #43362D",
";. c #41362F",
":. c #42332D",
">. c #4A342F",
",. c #4D382E",
"<. c #482F32",
"1. c #453631",
"2. c #433631",
"3. c #493631",
"4. c #433C35",
"5. c #433A35",
"6. c #493932",
"7. c #493A33",
"8. c #4B3933",
"9. c #4D3B33",
"0. c #493B35",
"q. c #4E3B36",
"w. c #4A3C36",
"e. c #4C3D37",
"r. c #4B3B35",
"t. c #443D38",
"y. c #433D39",
"u. c #4E3F38",
"i. c #4B3E39",
"p. c #503B34",
"a. c #503D38",
"s. c #523E39",
"d. c #46413D",
"f. c #4C453F",
"g. c #4B423C",
"h. c #584036",
"j. c #51413B",
"k. c #51423B",
"l. c #54433D",
"z. c #53433D",
"x. c #58473E",
"c. c #5A473E",
"v. c #5B433E",
"b. c #474541",
"n. c #494440",
"m. c #4C4542",
"M. c #4E4945",
"N. c #534641",
"B. c #5B4642",
"V. c #544A43",
"C. c #564B43",
"Z. c #544A43",
"A. c #594942",
"S. c #5B4B44",
"D. c #534E49",
"F. c #5F4D48",
"G. c #555046",
"H. c #595147",
"J. c #56514C",
"K. c #5B524D",
"L. c #644F48",
"P. c #605047",
"I. c #63564D",
"U. c #635D54",
"Y. c #6B5C54",
"T. c #725D57",
"R. c #6D6257",
"E. c #67615A",
"W. c #68625B",
"Q. c #77625C",
"!. c #6C6860",
"~. c #747066",
"^. c #7E7463",
/* pixels */
"y k k m N k N N p a C 8.k - = & y m m m k k &.9.l y t s M *.l C B $.c.c.8.$.;.v > - - & X & > O     . = O O X   X O         O y ",
";.;.V c c i p i , , 1 v p p k v F N p N k N N A p y u t u B k q.u r | h.h z z u w f s u N v , & O . . X = , > . X . . X O O j N ",
"y > , O & = = , p : O & & . O & i k b Z J H 4.t.V I n.f.C.C.t.k & . 7 T W R / ~ d 0 9 g w.N N i , c , = , > D m m N k , & O O X ",
"> & = - > p 1 j b p , , , & & X > > c Z Z V L v p n V > & O O & & . . 7 s { @.o.O.} ] B j.j.j.l.u.A.7.a k B 8.1.e.e.8.H N k k k ",
".   . O = O O O & & & . X p k , , = X X O i : : : .     - k m N p & & y v &.a.l - r p k l l l u t k k k k k y > > r - p p a k > ",
"p p j k J v c V v j 1 > = , p > V k > = p v < X . . X r C = X & , i k J C m k k v a k j & & * - * - & & & & - > a v k i i , > i ",
"Y 4.y.Z b j j i p b k a O . X       X & : : . . . & k l.B.1.> > 1 i N g.5.J v &.a.w.g.5.v , b V g.N.g.a * > r , : v N > : : : & ",
"- > : > y k k y = = = y &         . & p J f.Z., k 7.F.T.Q.Y.g.N > > 1 , . X O = m a I y.K c n n.y.y.J.D m k p k v 2.D v k N C p ",
"C a . . X & X X X X X O k C a a l | 9.F.Y.K.f.m e.C H t.x.C.P.A.A y & = - y a r m , v 1 O . X : & . O y 2.V v a j c a p > , C <.",
"C a   X           .   X y C C N k i j p , > , N j.p v N k k p j N N k N :.N X l a.v p , p : O . & & . y N k , j v a p b v p N M ",
"k m = = & & X . = - , p V v : X               a >.B g l g u y > k J N C w.g.N e.g.p i j a k m N k y = a N B 5.z.N.S.C.5.P P P a ",
"u -         = a n g.Z.J.g.g.f.P V N r X O & # $ $ $ @ 6 4 z C.S.I.Y.4.F F L t.t.d.n.m.w.&.b c P N c v j i , i i a c p , c x 1 : ",
"r = X X .   : m b g.m.g.n.D.J.g.g.g.*.*   . . . $ @ + + + B F.2.t.t.g.g.5.v v H w.5.5.1.v i & O X : > O & & O   .   . & > : . X ",
"p y y p y > p > - a m k v V V J V Z e.C k a , k m m D l v 1.e.B a w t z 9.C D j.:.z.l.$.D ;.N , r & & .     .       . X   & & . ",
"= & & & & & & = & , :.v a p : p p 1 j a a c b V V b F l p C H A -.| ) f a t g ,.t z p.f t t = y $.> > & . $ 3 2 @ @ % .     . t ",
"X = p V C m N v > k  .7 t p ; : > > ; > 1 1 p j i i , k l y y k a a k y > = O & = .   .     * y a r r & u r 6 4 2 2 4 # . . # q ",
"& & : , , , , > : > u 3 5 u c p c : : ; < p c c b j > m &.b v v , v k Z v b 1 j 1 -                 . k q.;.1.2.l r & & & - B k ",
"y : & & & O O & & > u 4 4 w y 1 p : & O & < p p v j k B C p V , > j y N , p p y > m B y #   . X . X , 5.5.P I c : X . O & O p , ",
"N a k k v p a N V V V k p k k N g.g.v & & r m k p y , 2.K.K.C.a & y k k v V v m N N C C a.&.B k - X X O O & & & y y p = X . = : ",
"1 & > 1 N c c I I j & > j b Z Z d.L v m a y p j N k b y.y.b.I p & - y p p p > , > , - y L.Y.S.C.g.J c v I d.J 8.$.v C k > , > i ",
"X & r v C > . O : > - . . O X       # B M u r > r > - p a y q f z m > & - y a N k , k C L.L.m b M.D.I d.I V K j.D c n c c x c 1 ",
"r > > , > & X   . & p ;.e.:.l @ @ q t z ) } ..| 3.p.M z z f f f f M = O < , : > = X . O > i l y , j I I c p k j.7.N v c c < O : ",
"k y - O .       . , &.w.B y y 6 6 y r r t t s l q.l y q r q y u a m & . & y J P N y O .   X 3.v.1.B C N N Z g.D.m.5.5.y.I V < & ",
"j k p : X   . = v r # & r y r * * - * y - p p y C N V v > , i v b k # . . = j , V g.7.k & y v a v 2.B.P n L I I I y.V Z I Z 1 & ",
"X X O = O > p > k u @ @ % 6 $ @ $ % % B m , v p k N V N y : & = & m C A m m p v m.I C q.z.u.5.V V 5.C.w.V v c N C m v p k p v V ",
"a , > v m m a p k a * * r a a l m g y r : X X = > : v V = O . & *.l.v , v N N p b I N 8.C N Z p v K K I L L V n P C m m J V 5.w.",
"u l C N a i = O y p b p c V v v 5.5.e.&.X . > , N N v X   . . & 1.N.5.C N j , > : : - B > > j b V I d.D.y.M.J.m.P m k , , i a , ",
". & > n =       & = O X . = : > < . k V =     . O             . N L I V v b p v > & > k p v v L I v n K I n.y.K L : . . .   . & ",
"v b j , p , O . & & . O O O O .   r k a y r > & .   . . & = * a 3.C N a a m l N N N m &.V v , 1 p : : : = O . O > k k N v k k y ",
"b Z Y V V V j v i , p p j = . . & y k N q.1.2.C N N m a m C z ^ _ ] ] } } ^ ..+.M 2.g.Z.5.V L I K Z N V V K j : 1 , = , : = , y ",
"> : : & > v C g.2.N u.j.S.l.7.;.D &.u.8.a.k 1 n Z V n v 1 N m D N 2.1.&.C C :.C & : : : c c Z y.L c > > c K c > p : , p p i p k ",
"> & O , ;.;.k m ;.w.:.C :.:.q.7.$.:.S.A.A.1.- & & > , 1 v D v k > > , : : i c : & > p > X & = = O X . . & 1 v C 1.z.N.5.N y c v ",
"& = p 2.w.B & & , > , j k y y N J D D N N k m m p V L b Z Z Z L p y i > O .   . > p p p v V b c N c i * .   > a c p c c 1 m N a ",
"& . & 2.A j , O                         . & C C N D w.B a p y p m u.J Z b p , i p c n V L Y Z b v v , y & O : : > c b 1 1 v > . ",
"    = N c p j j p > y y y y - & X .   . # q a a , : M  .1.5.w.e.z.S.z.B.l.z.2.;.2.L g.5.V J V J J N N ;.1 n Z K I V 1 : : , : O ",
"  X O & O & & = & , , : > k p >       . # $ . & & . . * r 4 7 6 6 7 6 7 | g.2.7.1.N b b > v p c a a v z.v > O O X ; : : O : j b ",
"p N v v N J J J N C A D C V D B p > & > > = O O X .   * e 8 2 @ 2 2 2 @ u v c J N p y X O & = > p c f.U.V & = .         . p I I ",
"c V K I L I I Z : X O c c V < : Z f.j , > : ; : X . y B d Q Q ( E 0 8 2 a , O & . O & : & & : : : 1 j 1 O O : p k r . o > v n V ",
"X : & & > O & O     . X . : = p > > k a k p > 1 : i w.q.t ( X.X.X.` ! 9 m N a , : > > > & & O : O O = > v P C.K.S.N.2.p & X . O ",
"                  = : & X & r l a k k a a u u k D $.B C m t t h h M h s C N N v v N k > & y & r 6 $ , V I d.J.U.W.!.~.E.U.b & > ",
"    X . O = X X = i : = , y * * * & # * r a m N J D C D > O . O & . . . k > O O O O & : O p m B | 1.N p b b < V M.M.M.D.Z.v & O ",
"  X & = p Z N p a v k m 5.5.v a i y k k N V N C P g.g.z.w.w.2.;.2.C N k C 7.1.5.;.2.V p y D g.J 1 , < & X : X O > > > : & & > p ",
".   . . X & = : . . & & X X X X X . . & y 1 > > p c v c Z V c V y.I V c b V n K l.Y.^.U.f.L j b p O O                     X O X ",
"X = = O . O O X X                     # y > : & > p 1 > 1 < > 1 c p c 1 > > 1 v &.v C.4.f.G.d.d.M.Z : > > : > = & X X .         ",
". X O & O X = & .                     & N 2.C p , p & . . O O = : : = > > : , N N : O O 1 : p Y n.Z p t.m.t.L v y y , > .   . X ",
"              & .                 . # . y L b b V L v < v L 1 O O O X & : & & : v V V N v > p j > , k p > : & X O O O O X X & & ",
"    . O O > j , .         . O & . . & & - . X & j j N V v V b Z J y r p k N > & m &.m p i : p C , > J P b p > p j i 1 j p & . . ",
"= 1 a p = X O O O .   O O = , > = = , v k > v p O : J L J Z 5.2.5.A m C P C k , : : : , > N a - 1 V p : o . O O O O O O : O X : ",
"  . O O X X & = O X X O = & = : = , , & & C V p > > = , v v V C p a a a i : k & . - y a a v k k v j p p j i O & > > , > 1 b V V ",
"= - O . O : , , > N 2.N k p i N 2.5.V v V 5.J b Z N v a j p v N . . . o & & y = p V t.P b 1 Z I Z N F Z v a - v Z N n j i 1 > : ",
"& k         . . . . N p & & & : : > = > 1 v c p p p p j j b v >           O & n P d.Z.y.P I :           X O & > : : p 1 : & & o ",
"O k . . + . + . .   p p & > > > p p 1 , > > : & & O X . . . & & X : > > & O * 1 : < : O 1 1 X O O X       : O .   . . O . . .   ",
". k & & * & # & X X k > , v v p k N N V a p j a p v v k , , j k p N N N p > i &   . X O   X X 1 v .       & # #     . . X &     ",
"  > = & : > y p , , p k v k v v v v N 1 : : : > > O : N & X X . .     .     .     .         . k t.- * * - - - # . # - # & # - & ",
"  X             . X X X X O & # = > & .   . O > 1 > > k         . .           . X X .         j m.H D J J N k p y > - & & . p - ",
"O O . X = y > & & & > & X X X = - , , O O & = , = & , k X             .             X         1 m.N c p v c 1 , : & O . .   . O ",
"        : A , & : > , > > y - p y k 5.D 1.3.C N m J 5.N y y y > : , j p &         . .     . . k J O O & : ; & O O . . .         ",
". & = & & , O       . = & # . # p > : a l.l.C : > a c N 5.g.w.D w.S.N.Z.C i > v V P P D r > p p , & ; & O ; < & & > < > : = X . ",
"> > = , k &       # $ # > k H 5.> a C S.T.T.I.w.v > p p k > X O > C L Y d.V V I d.M.D.J.V y y p c b J V v N C C v k k c v v k y ",
"& = O = = y a r r l g M S.Y.R.K.k 7.7.k.w.C.A.F.F.N > X & & - r > B v I V = O = : : < p k 2.P b v V J V j v c 1. .m y X & & = & ",
".   . X X y B B C &.v v N , i = m e.y k y v v v V N N k p B k O k 1., , < j , X   . . O * p v , , p i , p > c D  .*.y   .       ",
". & & = : p y O .               a s.g u y a r - , p N 2.D u.&.k z.l.y & = > p p k , & O y v N 1.F.F.N.7.2.D J 2.a l m = & & > & ",
"k P 4.d.M.y.g.5.Z j y - & X . . $ $ + % w 7 h g.H.H.t.Z , b H t.f.m.g.5.2.B m D t.N a 1 p a v b V J V v i c v x : y : . . . X : ",
"V y.D.M.J.g.J.K.g.m.g. .- . # # # @ @ @ 2 2 M j.D.R.U.D.t.L b J 2.t.g.g.D c 1 p < > b V p O . . O o & & . X X X & r &         O "
};
