/* XPM */
static char *_b19282826094402d42a3c3100fdbe479enGKJeAcDaPe3Ff[] = {
/* columns rows colors chars-per-pixel */
"64 64 252 2 ",
"   c #020D00",
".  c #011200",
"X  c #091900",
"o  c #171C00",
"O  c #190D00",
"+  c #032300",
"@  c #0C2C00",
"#  c #0A2600",
"$  c #1A2400",
"%  c #132C00",
"&  c #1C2C01",
"*  c #152500",
"=  c #0C3400",
"-  c #153400",
";  c #1B3401",
":  c #163B00",
">  c #1B3B01",
",  c #252C00",
"<  c #243B01",
"1  c #2C3D00",
"2  c #273503",
"3  c #323C01",
"4  c #393904",
"5  c #2C340E",
"6  c #443906",
"7  c #1B4401",
"8  c #164D08",
"9  c #244301",
"0  c #2B4304",
"q  c #2C4A04",
"w  c #23440C",
"e  c #2B4B0C",
"r  c #274809",
"t  c #334A05",
"y  c #334B0C",
"u  c #384707",
"i  c #2B530B",
"p  c #285707",
"a  c #34530C",
"s  c #375708",
"d  c #2B4C14",
"f  c #2A4615",
"g  c #344C1A",
"h  c #374A14",
"j  c #2C5C15",
"k  c #2B5616",
"l  c #345414",
"z  c #3C5412",
"x  c #355C14",
"c  c #3C5B13",
"v  c #3C541A",
"b  c #335C1C",
"n  c #3B5B1B",
"m  c #33541B",
"M  c #2C6309",
"N  c #39650B",
"B  c #2C6314",
"V  c #2D671A",
"C  c #336314",
"Z  c #3B6414",
"A  c #3D6B13",
"S  c #35641B",
"D  c #3C641C",
"F  c #356A1C",
"G  c #3B6B1C",
"H  c #326A14",
"J  c #3B731C",
"K  c #2F701D",
"L  c #394925",
"P  c #3C5D23",
"I  c #395722",
"U  c #3C6323",
"Y  c #3C6B23",
"T  c #386826",
"R  c #3C7324",
"E  c #3D7529",
"W  c #474A09",
"Q  c #465809",
"!  c #464A16",
"~  c #445413",
"^  c #435B14",
"/  c #4B5A15",
"(  c #43551C",
")  c #435C1B",
"_  c #4B581A",
"`  c #565818",
"'  c #544C12",
"]  c #665617",
"[  c #44640B",
"{  c #4B6313",
"}  c #446B13",
"|  c #43641C",
" . c #446C1D",
".. c #4B6B1B",
"X. c #486518",
"o. c #5B641C",
"O. c #536C1B",
"+. c #5C6C1D",
"@. c #556616",
"#. c #4B741C",
"$. c #4B7B1D",
"%. c #457318",
"&. c #54741D",
"*. c #59771A",
"=. c #516D0B",
"-. c #67681B",
";. c #647719",
":. c #6F701A",
">. c #435C23",
",. c #465926",
"<. c #575A26",
"1. c #455532",
"2. c #535326",
"3. c #655C27",
"4. c #795D26",
"5. c #436523",
"6. c #4B6323",
"7. c #436C23",
"8. c #4B6B23",
"9. c #44642A",
"0. c #4B642B",
"q. c #446B2B",
"w. c #4C6C2C",
"e. c #536C23",
"r. c #536D2A",
"t. c #596827",
"y. c #437324",
"u. c #4B7325",
"i. c #4D7B24",
"p. c #43742B",
"a. c #4C732C",
"s. c #4C7B2B",
"d. c #447B26",
"f. c #547323",
"g. c #5A7424",
"h. c #537B23",
"j. c #5B7B24",
"k. c #54722B",
"l. c #5B732C",
"z. c #547C2C",
"x. c #5B7C2C",
"c. c #496B32",
"v. c #536C32",
"b. c #586B34",
"n. c #4D7333",
"m. c #4C7935",
"M. c #537434",
"N. c #5A7433",
"B. c #5C7B35",
"V. c #5D7B3A",
"C. c #557938",
"Z. c #646C23",
"A. c #636C2A",
"S. c #696727",
"D. c #736B29",
"F. c #637B24",
"G. c #62742C",
"H. c #637D2B",
"J. c #697727",
"K. c #787A2A",
"L. c #6B6B33",
"P. c #776A36",
"I. c #637433",
"U. c #647C34",
"Y. c #697A38",
"T. c #777938",
"R. c #597B42",
"E. c #657D45",
"W. c #797945",
"Q. c #776E41",
"!. c #847A39",
"~. c #84742A",
"^. c #86751B",
"/. c #857847",
"(. c #8F7548",
"). c #58841B",
"_. c #67831E",
"`. c #4B8228",
"'. c #5C8324",
"]. c #5B832B",
"[. c #568827",
"{. c #5C932B",
"}. c #5B8334",
"|. c #5C833C",
" X c #588937",
".X c #578F35",
"XX c #64842B",
"oX c #6B832C",
"OX c #678828",
"+X c #75862A",
"@X c #67952B",
"#X c #74952E",
"$X c #638433",
"%X c #648C34",
"&X c #6C8C34",
"*X c #6A833B",
"=X c #688737",
"-X c #748C3B",
";X c #7B8D3C",
":X c #768736",
">X c #699538",
",X c #77963A",
"<X c #76A838",
"1X c #5C8846",
"2X c #5E9144",
"3X c #698945",
"4X c #748B44",
"5X c #7A8946",
"6X c #689547",
"7X c #7C9242",
"8X c #769947",
"9X c #789955",
"0X c #728D52",
"qX c #7AA448",
"wX c #79AA4F",
"eX c #779C66",
"rX c #858937",
"tX c #86973B",
"yX c #8C872C",
"uX c #82A83C",
"iX c #AF9031",
"pX c #858845",
"aX c #859846",
"sX c #98994A",
"dX c #869954",
"fX c #959A5A",
"gX c #948752",
"hX c #AD9256",
"jX c #89A64B",
"kX c #98AA4C",
"lX c #87A756",
"zX c #95A859",
"xX c #96B658",
"cX c #8FB24F",
"vX c #A5B157",
"bX c #909D65",
"nX c #AA9662",
"mX c #94AF69",
"MX c #A7A76B",
"NX c #AAB56D",
"BX c #C9B175",
"VX c #95CE69",
"CX c #A9C576",
"ZX c #B4CC78",
"AX c #9BD16C",
"SX c #D0BA83",
"DX c #AECF89",
"FX c #B6EC91",
"GX c #CECB8D",
"HX c #D0F0AE",
"JX c #EBE4AA",
"KX c #BFDFA4",
/* pixels */
"m.C p J d.d.C Y x n x 9 Z %.%.} : U.dX{ { s Q u A.L.` ` G.Z.o.S.~.4.] 4.] W -.K.S.` ` L.! Q.6 ! ( N.b.>.l b q.p.j E 1XT < h 2.MX",
"a.s.C G p.y.j S a.n l l z.h.A N 9 e.H.F.+.@.Q Q ` L.S.W o.-.-.-.' 4.~.D.' ] ` A.Z.u ` ! 3 NX! 4 ( v y y q : 7 V E V E b ; * 4 gX",
"7.|.x Z 7.7.D 5.P l v l =X8X%Xh.< @.J.J.J.-.@.-.S.' ` ` ] ' S.D.:.!.!.D.' <.3 u ( t.( !   fXJXo.( y < ; : : 7 p F 7 7 @ @ . 2 <.",
"r.U.c D D D a.8.v v 6.c k.x.#.s 0 +.tX@.+.@.K.:X` W T.D.` Z.sXK.-.D.-.W 4 2 * y z * y I.~ / GXGXt 0 9 q | 8.Y Y 2XE F i y X ~ W ",
"6.6.q | e a 8.l 0 % 0 a z > @ = + s &X*.+XoX;XoX@.1 / t.o.Q 0 , o o X & / s X.XX*Xc 4Xk.) t v 3Xr.z ) k.*Xu.p j R  X6X9X8Xt pXA.",
"0 t q 8.| w.B.5.V.>.v.V.3X=X%X>X%.h.>XjXcXcXqX,XlXH.f.dXmX{ . ; 2 3 u ^ 4Xg.>X].z.z.8.| e 0 >.>.z q a a | 8.x Z j 6X}.7.8.^ zXY.",
"1 6.w.}.=X8X6X3XM.5.w.c  .}.8X>XwX>X[.@X{.[.@X,X%XwX8X8XqX}.q &X-XzXCXzX-Xc c x 9 a.D > r y ; v q a c ; > n i i j 1X6X|.r...6.~ ",
"q *X=Xs. X6Xy.s.x i | x x } [.[.M M {.>X<X[.wXxX>Xz.Z G C  X#.8XcXtXkXaX=Xz.a r P k P w ; - v l 0 t 5.y e n 9 r i i |.9X$Xr.t.GX",
"M.a.}.G >X.XJ B p y.C C y.%.[.{.[.i.).<X,X).@XqX>X#.9 i  .s u.-X_._.,XXX&.f.n n.CXeXf m f ; g >.v l y n y 0 P e r b q.1X3X3Xk.HX",
"a.u.z.d..X`.R J F H C C p A .X[.`.i.[.,XOXN *.jX8Xc X.x.| c Z XX+X;.#XoX&.#.s D M.DXDX% L 5 L L >.P 0.e 0.>.w d w m r n.w.) HXbX",
"7.x 7. X.XM H d.R B G C M d.[.`.A p p #.@X'.$.,X>X .| | x u.Z 8X:X;.:XoX*.&.} ..e d DXf 1.1.5 1.; 7 C.0.g I ,.d M.d 9.C.U M.mXDX",
"v l 7.6X XB H F F G Y x s. X%.i.G C A $.>X>X#.%Xh.6X6X|.u.|.Z =X;X;.J.F.Q [ X.f.7 @ R.R.5 5 1.1.; w w >.v g I g I ; n.c.0X7 0 9X",
"1 >.M.6X|.m.}.C S 5.5.n M.$Xc s D G G  .%X>X#.&. .u.lX9XD |.D z.tX+X+Xj.t q n c.f I I E.% # 1 9XmX9.: d v I b.f >.m U q.6X> x s ",
"2 5 v v.C.w.w.U >.l ( ( ( r.6.q | 5.| | $X8X$XH.X.9 U.k.n V.9 e.oXK.oXg.y < d g w @ f R.M.l.X.HXHXHXmX< v v f g g l e r r i q : ",
", o 5 f >.r r v h h h h 4 ! <.u 3 h ~ W u u W Q / W ! ~ t._ $ 3 t.Y.Y.I.6.n n m b 3Xc.|.w.e a c DXHXHXbX2 ; 2 - > l i i u.p  .p ",
"X & h # > > ; - - h 2 , 2 2 3 3 _ W 3 Q Q u W u u W $ 1 , X ~ 3 2 u y q q 9 7 = }.FXCX8XC = @ = 9 5.eXHX>.0 y 0 n l 9 x x 6XqXwX",
"+ 0X9XqX[.[.>X@X} h.e.{ O.*.*.Q K.K.@.;.Q *.[ [ OX&XXXs c =X6X$XX.9 9 : 7 7 p = .XFXVXVXVXVXM p r < f l E.) 6.r.B.| Z p } N {.{.",
"0XmX8X,X@X<X<X<X[.{.j.h.OX,X<X#X+XkXrX;.+XuX<XuXjX'.[.%X>X].i.>X>X=X3X6X|.2X.X`.qXFXAXVXVXAXwXB r g I e l a $X4Xc c a C A $.[.{.",
"5X5X+.j.).).).).@X`.$.$.`.@XqXuX;.yXkXkXxXuX#X).).{.>Xi.Z  .y.s.C  . .s.G R H H M VXFXVXZXFXmX8 P w l C.N.c r.*X) c x a p A ].qX",
"3.L.J.:X#X).{.{.[.J `..X[.{.@X@X+X+X+X#X_.@X@X@X$.M p p C F j B C J F Y F F j M K H DXFXFXDXB r e d l V.U.e.c t z a w.n a.Z 8.u.",
"3.3.Z.J.OXOX@X{.[.H `. X`.[.{.@X*.tX#X*.@X#X'.'.$.p p F p.T j V J J R F R B B B p B 6XFX6X: b b r 6.z 8.e.^ t 0.N.h v 9 5.) ) l ",
"3.3.L.F.'.'.{.[.[.C y.y. .u.$.].&.oX,X=.@X).OX[.A s. XF j T Y Y K J `.R R p B V B 7 j S = d w d e 6.t 8.g.a 1 I.( h >.v h v y ) ",
"_ _ I.f.i.$.[.i.d.x w.N.U.U.^ { < t oX&X&X*.>X%X].y.Y S S Y T R R J `.`.T j V V k k : : - f 5 I < 6.z c e.X.t 0 ( ( v.v < t z Y.",
"( y 5. .s.`..X`.m.x v ( b.Y.` t.# r.4X;XoX&XXX,Xu. .s.p.Y Y G s..X`.R `.V T T k k T 7 w - f 1.& v.0.) 0.r._ z y y h E.v.b._ ~ _ ",
"M.P n Y Y p.2X|.C.N.0.2.3.Q.! ! X ( dXY.t.J.+.O.s  .y.G  . .u.%X[.i.d.G j b T k I w f f g L L 1.,.< v.M.5.0.z ( 0 y ,.5XdX@.1 Q ",
"0.V.R.P m.2Xp.1X0.v.b.2.<.4 ! 2.2 h t.t.o.Z.J.H.$Xz.u.u.s.i.h.].h.%.u.7.i k q.I g f g ; & L L L g > m 5.w.v.l y 0.) t.N.G., * 1 ",
"0.E.M.e U n.k R.v.b.v h <.! h o   $ ! L./.!.T.Z.U.f.u.#.#.h.h.} N ].].7.U b m c.g w f & # g 1.L f g d m 9.P > - ; 9 0.| l.{ Q < ",
"h ,.< % @ @ @ ; 0 2   X . . . . * h u 4 4 6 W 3 0 s A A N h.].} s } q 9 e r @ @ - # % @ X % 2 # + = + + @ @ : - d n r.| O.&XaX*.",
", h & & - % . . $ 2 u ~ z 3X0XdX0XMXMXMXnXsXsXK.;X4X8X6X`.i.i.} &X].x.7.X = U c.1Xm.C.C.U P m # : r k q.S S C.U k k n | 9 s j.OX",
"0 y 0 z b.,.. _ bX5XdXY.4X3XV.N.E.Y.T.pXsXsXsXsXaX].i. X`.G Z  ...[ ..B.l w.q.k k b S x x n.|.k b U m.6X X}. Xj r k Y |.c f.j.XX",
"X...^ r.U.r.2 5XT.3 W o.@.0 | lX4XG.Z.S.K.~.:.J.aXh.C R s.F p Z s } i x l q.P q.T p.S p p F p.j p.G F F B F p.E j T T a. .%X].#.",
"f.lX4X*X6.I.I.L.3.S.Z.T.{ { x.H.g.+.J.-.:.K.-.@.H.u.C C s.s.G Z Z #. .z.5.m.U b T E Y p.R H G B s.s.R H V B B E T b q.|.|.}.].OX",
"#.].=XlXY.<.<.L.P.P.T.J.aXs >X#.j.&XjXaX;XJ.o.I.U.8. .}.].#...N N #.Z D a C.S S E j F R V Y m.y.a.7.G E K K B j k U T S 8X>X&.;.",
"} ].X.*XI.Y.o P.Q.3.P.` H.&.>X$.h.} H.7Xg.I.*X*XU.c c ..&.j.j.j.`.G u.z.> 5.C.q.|.m.E T T T F q.|  .R E K K R p.m.c.E Y  Xx.j.+.",
"..$X4X3XdXY.  2.3.2.T.! / &.].%Xh.&.{ H.G.A.l.N.t.a r.f...f.{ j.>Xp u.6Xq n M.q.6X1XT k E E j Y w.D G K K K Y Z q.n.m.C.q.[ H.+.",
"X.k.9XY.0X<.,.2.W.2.L.t.t.l.[ #.&.j.{ O.Y.t.l.t.) z N.B.x.f.Q X.x.c 8.B.c 0.w.U U 6X1XT T k k m.D i C V R J y.x n M.m.C.7.a g.O.",
"N.3X4X0X0.b.h $ 2., ! W.G.^ t x.8X$X*X*X*XA.5Xt.6.) ^ g.*X*XG.g.e.e.U.6.1 t.U.0.U R.R.T T q.9.P U S s.E d.F 8.| 0.3XU U u.| e.g.",
"t c ) v.0.E.* X $ $ ! W.` 0 Q aXf.^ e.l.Y.~ / 3 y z t | G.g.g.+.s t G.t.* 2 6.) >.c.c.k : d c.c.n n F B j p a t ) U.e 7 D 8.r.5X",
"< ; ; - 9 +   . & o $ $ X X # < @ + - ^ G./ 2 ~ ^ ..g.g.e./ W / Q u t.A.W u z z M.P d 7 > w f f : : 7 p p Z ^ ~ I.dXC.7.C.3X*XmX",
"-X7X4XmXlX9 k.9XmXdXdX@.Q :X+XoXj.9 s lXaXdX7XNXmXzXmXaX7X:Xo.:XaXMXfX:XMXNX5Xl.| 5.U 9.m @   X d U m.6X}.6X4X5XY.0XM.U 5.8.u / ",
"J.-X4X8XxXqXlX8X7X7XsXNXZXvXvXZXxX-XF.-X+.aXzX;X;X7X&XJ.-XH.;XaXaXZ.J.J.rX;XzX-XU.B.C.C.M.0.# - n.U a.a.x ..~ I.4Xr.M.u.7.^ t.o.",
"aX-X&.&.'.&.'.'.oX*.;.sXvXsXrXrX-X,XjXzXQ F.,XjXoX&XOXoXaX:X;X:XsX:XZ.J.J.;X:XH...Z s x 5.M.0 e C.U Y y.D 8.^ 6.6.) n 7.k.X.o.D.",
"oXF.[ *.&XOX*.=._.;.+XtXrXyXyX+X,X&XF.F.*.+X*.#XOX#XOX&XjX:XtX:XaX:Xo.J.+.+X*.&.&.%. .Z x 8.y l n.U Y Y 7.| ) z ~ V.n.7.k.Y.Z.:.",
"F.H.&.&.#.*.*.*.OXrXkXtX:.K.rX+X@.[ oX;.tXOX*.OX_.#X*.OX,XoXtXJ.aX7X+XJ.oXoXOXj.} A h.s.| 8.6.v.q.7.p.7.q.c 6.z 9 a.u.D X.;XyX~.",
"G.7X-XXX..'.OX,X+X+XtXrX:.D.K.J.+.t ,X,X*.Q OX*.).#XOX*.XXF.;XO.;X7X-XH.oXXXj.*.h.%.i.z.a.n v n q.7.p.p.a.D 0.n d i C u.[ :.yXhX",
"~ 6.r.f.H.,XH.F.;XK.K.rXK.D.D.J.Y.oX@.F.&X+X=._.,X<X,X*.&.H.7XH.U.*Xl.U.&.oX'.[.A N %.u.a.n >.w.n.G Y y.a.w.w.P w.U y.z.[ -.yXiX",
"b.6.0.r.4X8XH.F.:X:XrXrXT.D.L.T.t.^ Q zX:XjXjXOXcXqXqX'.f.$X7X4X*XV.r.k...&X,X%Xi.`.s.y.a.i d n m.F Y p.7.n.U q.P U Y A =.:.yXiX",
",.( V.V.3XU.G.5XY.pX!.S.S.L.S.` / Y.0 X.l.g.x.&X8XXX8X&X$X*XI.l.3X6...t X.&.8X[.[.`. .D |.5.v e C.G s.m.T n.P C.U U Y  .oX:.^.iX",
"b.,.b.3X6.V.4XY.6.pXS.S.T.S.A.@.I.l.*   # >.b.r.r.I.X.U.t._ ( ( ^ f.X...h.#.'.%X>X .a 6.6.0.y % q.m.C.a.q.c.n.c.9.0.6.y / / -.:.",
"h t.,.( 0.( 1 z 3 5Xo.& Q Z.@.Z.o.Y.t.6.v m 9 > y z < 1 2 2 t < 9 s 9 q - 9 N ].f.| 6.v.( ( v v 7.S r 7 r e > # < y h 3 3 2 3 W ",
"4 ! $ X _ ~ $ & , / *Xo.J.;XoXaX+X:XF.$X$Xz. . .[ j.F.F.=.[ H.x.x.4Xf.} s &X8X&Xf.e.k.V.0.v.b.V.k.a.a.q.7.D e ; 0.b.I.Y.t.t.o.` ",
"gXL.' ! /.gXT.` / @.dXaXoXF.+.tXoXXX[ } z.u.A N } $.#XuX,X=.&X&X=X8X>X#.j.cXlX[ e.| ) 0.v.b.b.v.| u.}.|.z.a.8.8.6.t.G.Y.o.S.S.S.",
"pXP./.P.P.P.T.` t.4X4Xx.j.@.s { oX>Xz.y.a.T G G z.&.j.&XaXXX-X$X}.%X8X%XXX,X$XQ ^ ) >.>.0.>.9.w.7.C x  .u.z.x.x.f.H.:XaXL.T.rXpX",
"3.S.!.~.4.4.P.T.Y.4Xx.f.g.F.J.{ &.$Xi.C Y F d.y.#.'.&.F.,XXXOX&.#.>X>X%X} &XO.Q ^ ) 6.>.0.>.9.w.m.D C 8.x.x.j.j.$XoX+XpXpXpXpXT.",
"L.P.P.(.(.(.gXfXdXU.f.f.Q @.:X;.O.'.h.%..X`.$.N } @X).#X#X_.*.).} >X X#.[ 8Xj.{ ) ,.>.g 9.P U 5.q.D  .z.}.f.} O.oXF.+.Z.T.P.S.3.",
"W.S.P.gX(.(.P.3._ t.U.l.e.o.o.@.O.*.$.#.{.`.[.).'.#X=.#XuX_.=.OXN i.].} &.&Xg.r.) 0.0.g 9.m U q.n.7.7.}.=Xx.f.j.F.H.H.t.A.' ` S.",
"t.3./.(.nXgXP.' <.W.I.~ t.` ' o.J.&.&X].$.`.`.[.OX&XOX_.tX;._.;.&.%Xs N lXg.g.r.6.v v ,.c.9.b q.5.D 7.D 8.f...j.{ G.aXA.W ` <.3.",
"NXt././.gXgXgX, ! L.Q.L.T.S.S.T.aX*Xx.h.%X>X].[.%X&.:X-XtX;.+XtX&Xh.N q O.-X..X.) h ,.0.P 9.U P 9.l n 5.a. .s ..e.e.5X5XT.<.` <.",
"W.! L.3.W./.(.' O 4 4 6 W ' ' ' A.t.a q a C y.z.| 9 / / o.{ @.J.F.t q @ : H.e.e.6.I c.>.d n q.U 9.v >.w.5.l q z g.z z / _ 2 u W ",
"` , o , ! S.3.' 6 ' 6 6 W 3.W 3 u z a 8.z.}.6X}.=XB.U./ t.Z.-.;.+.=.&XaXjX&XU.z e P R.M.P d > : > : - - # - e 5.c ^ z l.I.I.Y.t.",
"L.' ' L./.fXnXMXJXJXSXGXGXGXfX;XNXNXZXFXxXcXAXlX8XCXzXoXaXaXkXvXvXvXkXvXxXj.x.| w.R.R.9.9.r @ e w.v.w.C.5.M.3X3XN.lXmXDXNXCXCXNX",
"GXSXSXMXDXMXMXSXGXSXBXGXGXMXoX7X;XaXxXjX=.} qXwX$.>XX.[ F.;.+XtXtXsX+X:XF.F.s | q.R.C.n.3Xn - 5.B.r.0.9XV.w.9.n w.9XlXNX-X-X;XjX",
"SXBXpX` fXMXpXgXhXhXnXBXNXT.&.jXaXpXaX&X'.{.{..XqX%X8.f.x.*.*.;.:.K.:.K.*.-Xj.=Xw.c.b m w.n 0 V.N.5.l V.5.5.w.n.c r.9XdX&XXXoX-X",
"hXgX!.!.pXZXfXP.gXhXhXgXpX{ [ ,XY.:XXX[ #.[.$.>X8Xu.V.U.e.F.F.+X+X~.yXrXF.F.4X9Xn.q.P P M.5.a r.c 8.5.3Xn 5.n.w.w.a.9X=X8X,X,X&X"
};
