/* XPM */
static char *f4af2e27d155426db7dc624d1f5e042ev4PfLBCgryIjeoRk[] = {
/* columns rows colors chars-per-pixel */
"64 64 179 2 ",
"   c #050501",
".  c #060803",
"X  c #0B0C05",
"o  c #0E0E0A",
"O  c #100F0A",
"+  c #0D1007",
"@  c #0E110B",
"#  c #191202",
"$  c #13130D",
"%  c #1A160C",
"&  c #16180D",
"*  c #1B190E",
"=  c #151611",
"-  c #181713",
";  c #171913",
":  c #1B1B15",
">  c #171C18",
",  c #1D1E19",
"<  c #211B0E",
"1  c #211D13",
"2  c #211F1A",
"3  c #1D2116",
"4  c #1E211A",
"5  c #25220F",
"6  c #232215",
"7  c #292816",
"8  c #22231D",
"9  c #2A251B",
"0  c #26291E",
"q  c #2B2A1E",
"w  c #322A1C",
"e  c #31331E",
"r  c #252621",
"t  c #292621",
"y  c #262922",
"u  c #2A2C24",
"i  c #272C28",
"p  c #2D2E29",
"a  c #322D23",
"s  c #302F2A",
"d  c #2E3126",
"f  c #2E312A",
"g  c #323125",
"h  c #3B3427",
"j  c #373924",
"k  c #3A3927",
"l  c #32342C",
"z  c #39362B",
"x  c #36392D",
"c  c #3A3A2D",
"v  c #2F3430",
"b  c #353631",
"n  c #393732",
"m  c #363932",
"M  c #3A3C34",
"N  c #3C3E39",
"B  c #433D2D",
"V  c #413E33",
"C  c #403F3A",
"Z  c #3D4136",
"A  c #3E413A",
"S  c #42442F",
"D  c #424336",
"F  c #4B4634",
"G  c #42443C",
"H  c #49473B",
"J  c #45493E",
"K  c #4D4B3F",
"L  c #4A4A3D",
"P  c #4E503C",
"I  c #50513F",
"U  c #414640",
"Y  c #444540",
"T  c #454640",
"R  c #444641",
"E  c #484742",
"W  c #474940",
"Q  c #474942",
"!  c #474D43",
"~  c #464B44",
"^  c #464A42",
"/  c #494941",
"(  c #4A4B43",
")  c #4B4D42",
"_  c #494C43",
"`  c #4F4D40",
"'  c #484B44",
"]  c #4B4C46",
"[  c #4B4E47",
"{  c #4A4F45",
"}  c #4E4F47",
"|  c #4F4F45",
" . c #4A4C44",
".. c #4C4F48",
"X. c #4D4E49",
"o. c #514D42",
"O. c #4F5146",
"+. c #4D5146",
"@. c #4F514B",
"#. c #4E524A",
"$. c #535142",
"%. c #505143",
"&. c #515147",
"*. c #525346",
"=. c #5C5744",
"-. c #585645",
";. c #515B43",
":. c #595844",
">. c #525249",
",. c #53564B",
"<. c #54574E",
"1. c #56574F",
"2. c #52544B",
"3. c #58554C",
"4. c #59574C",
"5. c #55584F",
"6. c #545A4E",
"7. c #59594F",
"8. c #595B4E",
"9. c #545651",
"0. c #565950",
"q. c #545A50",
"w. c #565952",
"e. c #565A52",
"r. c #5B5E55",
"t. c #5A5C57",
"y. c #5C5F56",
"u. c #5A5C53",
"i. c #5D5F59",
"p. c #605D56",
"a. c #566151",
"s. c #5A6056",
"d. c #5C6155",
"f. c #5F615A",
"g. c #5F6559",
"h. c #5E6259",
"j. c #62644E",
"k. c #606255",
"l. c #666457",
"z. c #626255",
"x. c #656C56",
"c. c #6A6A56",
"v. c #606159",
"b. c #62645B",
"n. c #64695D",
"m. c #6A6C5D",
"M. c #706E59",
"N. c #656861",
"B. c #666A61",
"V. c #6B6E65",
"C. c #696D63",
"Z. c #656968",
"A. c #677262",
"S. c #6E7265",
"D. c #6E736A",
"F. c #737565",
"G. c #72756B",
"H. c #757A6E",
"J. c #737A6B",
"K. c #787B6A",
"L. c #767A72",
"P. c #7A7F72",
"I. c #75806F",
"U. c #778272",
"Y. c #7C8274",
"T. c #7F8678",
"R. c #818375",
"E. c #80817B",
"W. c #828678",
"Q. c #868C7E",
"!. c #8A8C7F",
"~. c #8F9183",
"^. c #8D9887",
"/. c #979E8E",
"(. c #9FA897",
"). c #9FA599",
"_. c #A3AB9C",
"`. c #ACB7A7",
"'. c #C0C8B9",
/* pixels */
": , l M b , y u u ; G Y M f p : y u = l l p N x l [ Q , 4 = u 5.f.Q A ~ B.| z 6 r b u l N l y N a G N p > y m 0.=.q g p m D G z ",
": : ; l p r N l , 0 M u u p l l A @.$ $ D G u l ' u p u b b l f p u : l 0.A / z : p M m b N m y < z p M Y 8 m N D ` +.J A N % 6 ",
", X $ l J y l u u : = : u b l A A [ 8 $ s l 6 G f.N l b M l l l l t 6 , l 8 6 : y N [ ..Q D m l 9 6 6 p u.b 6 l +.k.H.u.>.8.8 % ",
"l * & 6 G x x D G : o 4 8 8 4 u f A n $ $ n b b r y p A @.u / | q 9 8 ; p l u r s.0.u.V.| J *.L # * - 8 p r b / M ,.[ N / g c z ",
">.n : : 8 ) G M 8 : : , o = : u M J Q = $ t p Y l m A A u E.N g $.l.4.D l u l 4 g.H.1.y.1.*.D c w 6 % = 8 Y v.p N [ ! ) n L L V ",
"1.n ; , , N J ; = r , , , : o : : [ i.u $ 8 u l J M p l l Y n 0.*.8.| l 6 p N u J [ r b N >.` l 6 a a : l G w.c 4 J #.A v.8.L H ",
"D , = $ u l Q 8 : : : p m u = = u l l 8 X : p b G l 0 y N m l u.f.N n 8 4 Q +.A G.f.l y G >./ L q L l 4 l u M k J s.J V.J d g l ",
"t 8 u ; M Q N m u 4 u N l 8 , = , u = 8 $ 0 u p g 0 D u 8 > r f f f b l , x d.s.n./ N y b G l 0 F z N , y S.d.x.g.6.Y.d.,.>.N u ",
"u u l $ Y M f G d n n 8 = r > v i f p p , u N A y u e.[ Q Q $ , 8 8 y u y b n A M N G r b J q 7 Z / M 6 4 b.n.+.G N b A @...n u ",
", , , b u 8 l J / / N m f u A m A [ [ ' , 8 A H.G @.D.C.6.Z b t q 6 ; 4 u l p N J Z m u p u q g L ,.l X b m ,.A.S.#.G 0.A D N ; ",
"n 4 M G u , r 8 N 4 Q l N Q 9.Q l u p M p y 4 m N A 0.n.b.+.w.l : $ X $ 8 8 4 D G x N 6 8 l n n.S.L , u A #.J A.g.N f 2.u.[ A l ",
"M n Q 4 ' N : 8 ; l u.Q y N A 8 0 : r : u y u N Y l G d.F.8.,.8.l l 8 ; = = 0 >.D N D u Y N 0 C.` u n 0 N #.H.A.J u u N n.G 0 l ",
"/ / f 8 Q Q r u b ..2.l 0 N @.b p 6 u : l m N G y : / +.d L l.*.u u u r y l D *.L / ` l r r b N 3.k.l l f J L.n.Y.C.,.n M u c G ",
"w.l , l Q G r u A A x D +.A D N u ; = 8 N G p 6 r r l G x 0 u z : $ , r b N c 0 u ) J 0 u 0 , 8 G w.D N Y #.L.S.2.1.N D n l D D ",
"M u ; l w.M 0 N G u.l d.l ; $ r u 6 6 y u m N C : : 3 l J Z l ; ; $ > r M M l g A u 3 6 l 8 $ t 0 m G i 9.H.V.G J n , l | G 4 4 ",
"M G u 2.N $ N u Z +.d.Z l l r i d y y y l b M 9 , = u f >.1.D 2 4 p A Y [ p 6 z 4 y : d l ; u t 4 G X.R Z.w...' ' 0 0 u y.B., ; ",
"l p l u 9 g a 8 +.l 0 ; M z s C / 8 0 y A 6 u : 8 ; 8 l J l ..Y M V $.z.` u : 3 y 8 : : 2 8 l = ; b G ' D.0.Y m = 4 M @.C.| 9 2 ",
": f M 0 l J l : Z D p 6 p H n , u l / p p D m $ > u Q [ / M Y Y w.*.q g l u : l N u $ $ 2 8 r 8 8 4 , u N 8 $ $ r u Q 2.n.N p 6 ",
"b Z 4 M +.D f r u >.u.u 0 l u p f M ' G b b , , y 4 M w.f.G r r 8 +.k.u l M D A N l : = r u 8 , $ $ ; 8 y u ; + y [ +.0.n.n.*.0 ",
"f l l N N 2.l Q l n J 8 0 8 *.l f u r l Y M u : > > u G 2.G l f f g.Q.x N f f | G l : = p l N u , : y f l f 4 8 i l A J.+.c G 0 ",
"p u s l l 2.l r 8 l b.p l g [ D 8 u b p N 0 u : ; 8 l Y @.b f 8 ~ e.a.x f r m B.@.b u f N p G u 4 u l 8 y y 4 u Z e.a.n.6.+.8.g ",
", : , l l 6 l 0 0 +.J p L u 0 , y p b : ..N p N f 8 ; y M u N N @.L.) p G = = b N l G Q G l ' f ; l b : y A G Q J 0.+.e.+.Z Z c ",
"l , r 6 6 8 u p L M c c g 0 4 4 = l l X p p , M N N f r r f M r Y A y l Q r f f @.[ 0.Q x m m 0 4 8 : 8 u l A ' A : 4 +.Z ` L c ",
"l y y u = 8 f 6.Z x M ` l : : $ ; , u l u p A G +.Z f f u m u ; b , ; l 8 b N G 2.Z J ! +.u.m t m f 4 f u N Y A f l n l G n 9 9 ",
"A l y 6 , 8 l J h < c *.M y $ = u u u b [ b f ' @.l l f 8 N u 8 ; $ : r p G u Q f.) D u.Q y r l x d u 8 Q e.u.J x Z n 6 l n y 6 ",
"f M y , o 4 r l $.g V D Z 6 y , u G y r M M Q G B.y.2.y 4 M M p f 8 f f m r m b r 8 p M u : u J 8.L / N [ A l b.u.M @.y n u 8 $ ",
"l l r , 8 : r l V z *.R.J.J A y y u b [ u.@.A G f.u.N : u l p l G p b 4 y f u ; u u u , = 8 ) n.L G c l m l m J l d l y 8 r 6 r ",
"l 8 : 8 u : , l u G *.F.F.| m A N m Y N Q Y m l M u , r u b N 2.2.u u 8 y p u M 6 , , , l 0.U.x.8 : , : 8 6 u f l Q m p u l [ Q ",
"4 y , 8 = 4 o : J S.m.J n.+.N 6.m Q [ b m l [ A J 8 8 l y G 0.+.u.m p 8 u y ' b $ $ u l M >.J.;.l 6 p   p N , p f m l n u M 1.m ",
"8 p N l 4 y = - N +.5.M +.*.N J G f l l [ G A l M r r : y f N N A p l r > G 2.: 6 ; 0 z t f ) x L p y o l Y u u u u l b 8 y y 8 ",
"p 8 2.G D l 0 u u : y u 8 N m N @.G @.N N A f N 8 p M r l l A b.2.N G G 8 p r 4 f 6 8 g D w.| M n ; o l N 8 4 p 0 : u = 8 $ u Q ",
"p ; [ G G Z u g 8 : 0 $ 9 u r p y u u J >.>.Z M p 8 l r r Q 2.u.u.[ l f N 4 p A y f j 5 g 4.M m l 4 $ G 2.m @ y u 0 , p : > M [ ",
"l 8 l y m l n u 8 o , 4 8 r 8 r l 4 y ~ 2.f N | D d ) N 4 A >.[ ,.p y b l 8 x / q D l l C x A e.t 2 y f A N 8 4 M l 8 l > f C.+.",
"f 8 l 0 8 ; ; 0 : : y b G [ p 8 Z G Q [ n G : 0.d.+.@.A A G 2.[ / N f u p N D p 6 L a v./ N N l t , : u ~ A 8 : p : f m y p d.+.",
"A 8 y Q D l N 6 p 4 y R #.9.A A +.b.g.Z ) A d N l G ) f.2.A x 8 p p r l ' 0.b ; M g 2.p.M M l ; 6 u u u G u = O , o r p p u a.+.",
"J ; u M m M D p y 4 f @.u.B.2.Z 6.S.5.Z l M >.n ) G J G 5.G ,.x l G r p i..., l l g u 8 p N b u / [ A G 9.u $ = 4 f n @.1.J S.a.",
"0 0 $ > N f D l m Q m G y N f [ S.8.x x l y.@.m 7 S.S.D x u.5.Z m l p 8 r 8 0 z z D J n b u r l D w.1.N N : : 8 u A N w.d.L ,.b.",
", $ 8 r 2.9.[ N ,.) l f b.*.G ,.L c M D @.N , $ : J C.x u b.L.Y b D b = u u 6 c V 9 z / E p N u u n l = , : , : 8 N N 8 c >.l l ",
"6 ; r p M m | ) L u.c D o.u.M / 5.*.p p b 0 ; 8 l +.M x M M r @.Q M f 4 u u 6 z h % : p l M u / u 6 u u 6 = 8 N N n ,.M y.w.l p ",
", = 8 , r r b u.L K o.V l 6 l L M +.M u : $ $ 8 Q | x D ) G 4 8 f , 8 u 6 0 6 z w 1 q n w.n >.N 8 t n s 2 u l m N >.P.J n.v.9.b ",
": $ u l > > b o.w.,.n l M p Y 0.p [ +.p o o = , a u l L k./ u 4 8 , , - a 9 - 6 6 u G u.D.A C.l M N , = 6 p p f 8 [ u.,.S./ J ..",
"= $ m 8 ; r 8 / F.F.*.A N r l l f l d l s p b Y n n d L *.l 6 4 : $ + * a 9 - X , l l m m y N 6 b b = : u u J N l y D 6.5.>.n b ",
"; 8 n u > > y ..s.d.8.D l r u ! b : 0 ` Y Y Y N A A n u 0 u , l p 4 3 u a 9 a 0 $ d J f y n 6 6 f 4 : 8 ' l f Q b 0 ) J Z ) G l ",
"z D l $   , N f f e.J J N f Y G z 6 q l N @.N g m Q J 8 3 0 8 N ! f d c c a z g : ; J 6.u.l $ 8 8 o , 8 Y f y 2.n p G u a.+., J ",
"a 9 1 $ $ r b m G 5.n.S.b.Y A Z u 0 *.N 6 D +.D +.C.#.n l ; b J f y A G M z z 0 8 f J 5.u.p u 2 $ $ u A m l l y 0 l 0 x #.G A N ",
"z D 6 $ 8 p m p [ G.!.W.v.6 +.1., D m.N u m *.c.*.m.+.f m = u u : u Q x t a u 8 : 4 N +.) l u p u u u l b Q l , $ $ , >.+.l b.n ",
"a -.V 6 - , N 2.A G ` 6 6 l N & p n Z 0 f N F.c.P 8.` p J b , $ l l d 4 9 8 , $ = ; p 8 8 p u M j z u u Q w.u q u 8 u y A ..2.1.",
"g V L * : ..M : u 6 0 * % J D 8 u G l 8 R A F.j.:.I 7 , N p 4 ; t r , 0 n t y p 8 f d J *.8 u u B -.c p m D z q u l i b.@.l l E ",
"m l l , : p 8 4 l 0 f 3 Z f.+.G Q A A u 6.J c.F ) J G l u y p p r , $ = u p l l : 4 u n.Y.*.x u N B.H H o.a M N 8 u A f.N 8 l D ",
"2.>.M 2 - u f > , D >.M ) N u N G m i u D.~.P M.! 6.W.C.e.M M l 0 $ : 6 0 f M 6 ; 4 J +.Z G.n J ^ | H h w - E [ l G f 9.@.y r l ",
": , 0 8 $ 8 l ; G G.J ) C.l b l G u.A ! s.S.K.F.U.`.'.Q.n.6.G f u 8 8 0 l A J l y l f.d 0 / G w.@.+.K k c | A ,.| + f , b f ; 8 ",
"b , 8 , $ = = ; N f.p ,.B.f M p u x 8 6.n.J d x J.(._.S.F.) l ; , , r , , 8 p M A 5.J 8 l 9.2.N J *.D c +.n.A ! ,.J M l r 8 u l ",
"m r , y N m , 8 8 l u G [ N u Y l , J a.T.x 3 d./.W.) w.w.G u p p : u p , ; 8 r 3 8 l r ~ ~ Y 8 8.l.j c S.y.G A / M @.m 8 Q f.f.",
"8 8 r ~ u.9.Q 6 X 8 l @.f.2., p u 8 #.J.J.a.D 5.u.G M J N l 2.o.2.l r : : 4 p N n 3 u M Y G 2.G a 6 e L ,.Q l m q C / 4 2.0.0.A ",
"= : , l A [ 2.u X r M J D l : ; ; 4 ! 6.I.g.l M c l l l u @.1.x , p l = , : : l G J 2.r l u y.8.h < c.J.u p l M c G l 2 M 2.#.A ",
"= u y f 6.u.N l = ; [ Z 4 4 > $ > m A a.^.T.L d D Z 2.N M M f l 8 p M , 8 u 8 : 0 G [ m G J 3 q w H -.k u ; l ..a 9 9 ; M 2.m 4 ",
"r p r y J l Z N p 6 , 6 $ $ $ $ > y f ) #.m.m.8 c ) M 2.N p l r 6 n ; , x u l N 8 l J N n.D $ p k g k 8 6 0 N l q % : - p M u : ",
"8 m l l p l *.S.*.N l 8 = $ : , > p A 0.l Z 0 c l G m w.2.u r $ p N $ , N u m G l l ! ) M 8 $ l 4.G 6 l 8 l l l z t , : - , p l ",
"y 8 8 p y G / n u M 8 ; 8 r Y p 8 u [ y | ,.c n u u +.@.n 6 , y b 0 r b M y ; f ; Z v.>.N p s n D G n | M y b G u.x l .., : n 6 ",
"y f y $ $ : $ X u Z l X 4 [ ..u 8 , f N ; p l u p M 6.f $ $ = M u = y G Y p . r y m G ,.g n l 8 u f A G ] r u t M d m ..m u l u ",
"l 8 : = : u u 4 d N , + 6 J J , + o , y y 6 l 6 4 G l 4 2 - = y p l 8 G 9.G u r 0 +.1.n >.D N N Z f l i b r = : ! s.H.w.G n p b ",
", 0 : p l u : u N 6 , u l N $ X , 8 u y 3 m G 8 o 4 l A f 8 , > f l N 2.Q 0.@.: 8 1.>.n t l f f N f l r > > 8 Y 6.P.).F.+.*.G p ",
": 1 u D m p l u M 6 , ' @.p , $ X $ : A A b 4 8 8 ; #.@.p 8 8 f ! A V.H.~ H.D.l r p 0 : 0 , 4 b y 8 r > 4 u M 2.6.T.P.d.,.8.$.0 ",
"- t N n p , l > N 8 , b n : 4 : , $ : 2.M $ u E b m ! m b r l 0.g.h.s.f.A u.u.l , r z M 1 r 8 f 0 p 8 r r A A m g.,.d x 6 V m.a "
};
