/* XPM */
static char *_09087cf5d5a461de789266a84734322uB8Ebu69aYtMFjA6[] = {
/* columns rows colors chars-per-pixel */
"64 64 201 2 ",
"   c #2B2A1F",
".  c #31391D",
"X  c #30351D",
"o  c #2C2E25",
"O  c #2E2E2A",
"+  c #242423",
"@  c #2E3325",
"#  c #2F332A",
"$  c #323525",
"%  c #343B25",
"&  c #33342C",
"*  c #353A2B",
"=  c #3A3C2D",
"-  c #3A3D27",
";  c #353432",
":  c #393634",
">  c #363A32",
",  c #3B3C34",
"<  c #3D3C3B",
"1  c #3B3738",
"2  c #352F30",
"3  c #413E3C",
"4  c #423B37",
"5  c #413D2F",
"6  c #36431B",
"7  c #3A4324",
"8  c #36442C",
"9  c #3C432C",
"0  c #3D4A27",
"q  c #3E4233",
"w  c #3F423A",
"e  c #3D4A30",
"r  c #3A5524",
"t  c #44561E",
"y  c #424B25",
"u  c #42452B",
"i  c #434C2B",
"p  c #474728",
"a  c #46522D",
"s  c #4C592A",
"d  c #485627",
"f  c #525E29",
"g  c #424535",
"h  c #444B33",
"j  c #494D35",
"k  c #43433C",
"l  c #454A3B",
"z  c #494C3C",
"x  c #49463D",
"c  c #465134",
"v  c #4C5433",
"b  c #4D523C",
"n  c #4A5734",
"m  c #525A33",
"M  c #51553E",
"N  c #535B3B",
"B  c #586435",
"V  c #606B39",
"C  c #3E3F41",
"Z  c #423F41",
"A  c #454443",
"S  c #494743",
"D  c #464943",
"F  c #4B4B44",
"G  c #474749",
"H  c #494749",
"J  c #4C4C4B",
"K  c #524E46",
"L  c #524D4C",
"P  c #594F4D",
"I  c #4D5143",
"U  c #4E514B",
"Y  c #535344",
"T  c #53534D",
"R  c #5A544D",
"E  c #555A4C",
"W  c #5A5A4E",
"Q  c #565B44",
"!  c #4E4F51",
"~  c #4E5153",
"^  c #545453",
"/  c #595653",
"(  c #565854",
")  c #5B5A55",
"_  c #555659",
"`  c #595759",
"'  c #56595A",
"]  c #5C5C5A",
"[  c #625C55",
"{  c #625E5B",
"}  c #665A58",
"|  c #5B6347",
" . c #5D6253",
".. c #5F605D",
"X. c #646255",
"o. c #63625D",
"O. c #6B635D",
"+. c #67695B",
"@. c #71675E",
"#. c #696E52",
"$. c #5E5F61",
"%. c #615E60",
"&. c #5F6162",
"*. c #646463",
"=. c #6A6663",
"-. c #666966",
";. c #6A6A65",
":. c #66666A",
">. c #686768",
",. c #676969",
"<. c #6C6C6B",
"1. c #716563",
"2. c #746B65",
"3. c #7B6B66",
"4. c #736E6A",
"5. c #7C6D6A",
"6. c #6D7163",
"7. c #6E716F",
"8. c #72716D",
"9. c #7C716D",
"0. c #75766B",
"q. c #6E6E71",
"w. c #746F70",
"e. c #6F7173",
"r. c #747473",
"t. c #7B7673",
"y. c #767974",
"u. c #7A7A76",
"i. c #747679",
"p. c #777A7A",
"a. c #7B7B7C",
"s. c #826E6B",
"d. c #83726D",
"f. c #89746E",
"g. c #837572",
"h. c #8A7672",
"j. c #857975",
"k. c #8A7A74",
"l. c #837D7B",
"z. c #8D7E7A",
"x. c #937A77",
"c. c #7F885D",
"v. c #7F817D",
"b. c #7B8273",
"n. c #82827E",
"m. c #8D807C",
"M. c #92817C",
"N. c #7D7E81",
"B. c #807F83",
"V. c #7F8582",
"C. c #838383",
"Z. c #898A85",
"A. c #8B8B8C",
"S. c #898787",
"D. c #948582",
"F. c #958985",
"G. c #9A8A85",
"H. c #938C8B",
"J. c #9A8785",
"K. c #92938F",
"L. c #9C928D",
"P. c #8D8E90",
"I. c #8F9091",
"U. c #939494",
"Y. c #969699",
"T. c #97999A",
"R. c #9B9C9C",
"E. c #989897",
"W. c #8E9286",
"Q. c #A3928E",
"!. c #A69794",
"~. c #A18E87",
"^. c #A6A19E",
"/. c #9E9FA0",
"(. c #9FA1A1",
"). c #A3A3A4",
"_. c #A4A6A8",
"`. c #A6A9AA",
"'. c #ABACAD",
"]. c #A8A7A9",
"[. c #ACAEB1",
"{. c #AFB1B1",
"}. c #B3B4B5",
"|. c #B5B7B8",
" X c #B6B9B9",
".X c #BABCBC",
"XX c #B7B8B8",
"oX c #B1ADAC",
"OX c #BEC0BF",
"+X c #BDBFC0",
"@X c #BFC0C1",
"#X c #C2C3C4",
"$X c #C5C5C8",
"%X c #C7C9C9",
"&X c #CBCCCC",
"*X c #C7C8C7",
"=X c #CFD0D1",
"-X c #D2D3D3",
";X c #DBDCDC",
":X c #D7D8D8",
">X c #F0F0F1",
/* pixels */
";.o.T z y % >.C.a.C.S.E.T.U.a.N s 9 e * i B z F ^ ] ] r.T...c e j n.U.Y.E 0 1 H ^ ] ] ] ] ( h j :.q.T..X}.}. X X.X.XP.*.D = $ F ",
"/ o.) { T $ <.S.a.r.*.o.^ A L 4 Y 4.=.O.I d d 8 * > F ^ ] D e O.[ *.C.-.( { = g = * , < J F i h J ` :.'..X{.}..X[._.T.S.q.*.F * ",
"& 1 3 x g ; *.*.w % * , A L ] J x 9.) Y ;.y.7.V.y.*.X.Q T D w 3.J.9.) o.m.l.n s g / Y 9 9 * S r.X.I , J <.<.i.N.:._ A < A F a 7 ",
"[ 3.D.X.6 p p - , S ( >.<.>.r.7.x R 9.x *.[.%X%X%X%X$X}.|.v.* R M.x.k.M.M.2.% Y 9.D.g.g i k *.>.r.S.8.F , g U S g g Y X.X.i 0 J ",
"D.M.Q.R . 9 z ] *.*.*.] ( ) ] <.o.w =.Y % ] ). X X@X#X%X=X<.a k { D.h.g.4.K U z.x.3.S 9 9 , , = 9 g F J D i y j d 9.G.t.k / 9.k.",
"z.d.M.L n.J *.) ^ ( ( ( o.] ) =.>.S = 9 q = , F *.p.P.).}...j b 9 K R g 7 Y H.D.O., = J ) o.o.o.;.6.;.;.=.] ] >.x W L., , 1.k.d.",
"k.M.d.] {.k o.T ( ^ ) o.] ) ) o.>.J % < ] *.] T < ; z ] a.] A.z | Y g h i W ;.Y W W > ^ 4.4.r.4.8.l.y.8.4.4.;.>.^ , ) = A O.d.g.",
"5.G.2.r. X< ] ^ ( ( ) o.) ) ) o.( g * Z ] y.C.a.a.*.q i I ).Y.w U.'.'.].`.R.}.0.6.r.& F =.] [ W X.0.;.o.o.;.;.y.*.> g g S 4.g.g.",
"5.~.1.A. X< ] ] ..] ] ] ) / { ] < h = H o.=.o./ r.l.` A g [.E.z '.-X:X-X-X:X>X'.] <.; L ^ W ) W W W ) ] ] ] o.4.a.& y.a.3 4.t.j.",
"M.Q.} A.}.< ) ] o.) ;.<.^ ) *.k T 6.& ^ ) ^ >.8.) ) <.<.& C.Z.Y -X:X-X-X;X-X;X:XS.J A T ) W W [ ) / ] o.o.o.o.o.C.3 C.R.< ;.t.d.",
"z.Q.L A./.: ) ) o.] o.r.) ] { O y.y.; *.*.) o.r.r.) o.a.A -.| X.#X-X-X-X;X;X-X;X}.1 A / W / [ [ ] ] ] o.o.-.*.' y./ ] R.< o.9.9.",
"z.G.S S.A.O ) ) / ) ] o.^ o.^ @ C.a.; <.*.) ] ( >.u./ 8.) g N 2.#X:X&X-X&X&X%X X<.1 F ] ) } [ ] ] ] o.o.>.*.$.' <.8.< A.H { t.5.",
"M.D.M V ) & J { ] ] / { ) ] F , 0.6.; *.o.T ) ] ) *.4.) *.7 Y j.&X-X&X-X&X-X'.7.; A F o.o.{ o.o.o.o.o.*.,.*.*.&.*.t.; & < ;.g.s.",
"z.5., b & - : F T ^ / / J A < g |  .1 J ^ *.T ^ ( ] y.T / , [ F.-X-X=X#X&X/.r.* k A T =.o.] o.o.;.;.;.<.,.*.*.*.:.r.3 + < 8.g.h.",
"=.: A S./ - u < F A k , , x v s X.`./ : A =.] ^ ( ) ] 1 = - =.L.#XR.C.<.] < ; , H F T o.o.] ] ) o.o.;.<.] ] ^ ^ ^ / A + A 9.m.g.",
"1 < a.S.A.C.T > , a y z 3.O.z o. .] ) 9 , A ^ T J H < ( ;.Q F H.a.^ A ; 1 } g.} k ^ T ^ T S S S T T J A A S A k , , q @ A 2.t.J ",
"* k < A o.J = I -.W.v., } x ( N.S.S.8.( I ; A A < = b N.S.B.U U J 1 J ^ / O.2.L & k < k 1 1 < k < < < < < 1 : F ]  .C.*.; } ^ 1 ",
"-   *.*.o b <.R.#X-X}.z v T a.>.a.C.R./.A.$.A w g b I ^ <.a.J I r.E._.E.<.x A S k , , w g 1 > = * & 9 = , % @ A A.U.A.P.H S A   ",
"y., a.o.F _.-X:X-X%X$X+.x <.y...-.a.a.p.U.T.U.S.a.a.S.W D ` y.XX].).8./ T / W / T / >.>.>.;.<.r.<.) J F x k A < A T U J , ; J o.",
"H.F ] w a.&X%XXX X%X#XT.T J r.r.] >.S.i.e.a.C.A.C.a.A.*.* o.-X.XR.K.] ] ) ) ] / / / o.*...] o.>.n.C.t.n.l.8.o.=.L - q q.C.n.v.8.",
"a.J k F ).#X X.X.X.X#X}.6.i H a.y.( <.S.i.i.e.p.a.&.r.t., E &X X].l.) ] { ] ] ] ] / ( ] ..o.o.] ] >.] ] r.>.=...L 1.] y.r.a.r.<.",
"r.T u >. X.X}.+X@X#X#X=XT.v x H a.S.*.>.a.a.p.y.C.>.r.A.T U =X#X).C.o.=.] ] ] ] ) ) ) ( T ) ......>.y.) ..>.r.U , P ^ *.*.-.-.*.",
"r./ g S.#X X X.X.X.X.X@X.XM X.I A r.C.<.*.<.r.a.C.S.A.r.T k {.&X).(.A.u.o./ ] ] ] ..o.) ) ] ] o.*.o.8.>.^ *.*.J C.>.J *.-.>.>.>.",
"<.o.F U._..X X}.}.}.}.|.#X6.M 2.b < ! >.v.a.r.a.).I.( 1 * 9 U U.R.}.'.'.].n.) o.;.r.u.8.=.o.] / ) { ] o./ o.J ^ `./.A ^ *.,.>.>.",
"*.>.F Q o.a.'..X.X X.X@X=X}.j R @.b 9 w ^ >.8.S.r.A < T L k & * q T >.a.>.F 1 k k k < , , 1 k A k k A A A J l , *.<.- < ] ,.,.*.",
"*.>.] i X.[ ..C.XX+X'.Y.C.u.F T m B v n j A ^ ] l 9 A =.*.*.A @ z x o   % * T [ R T / [ T T g & L } [ x 6 & < T >.] $ o G *.<.<.",
"o.o.=.S ) z.3.] r.y. .j 9 y , q.a.<.*.] B a k g h h ; A ) 3 F 9.F.H.F.4.M = < 3.x.x.x.x.x.h.O.% k R S T ;.r.U.Y.Y.a.J $ , H *.>.",
"*.y.8.^ < 2.d.} x m v b F T F ; ^ ! G J ^ ( o.*.:.:.{ H ; } L.D.g.z.^.oX!.l.{ L / P P S k k j l ( <.a.a.a.C.r.] ] r.a.^ * 1 ] >.",
"8.] 3 l * 1 < k J ] 7.a.C.a.r.<.<.S.T.R.].{.XX X.X X#XC.o T M.g.3.5.5.k.F.F.L.D.z.D.H.H.F.l.< :.N.q.$.~ J ~ &.&.$.] q.C.J $ J r.",
"< k o.j U ] >.y.S.Y.T.R.R.U.)..X#X.X X.X.X X.XXX_.(..X X^ O j.z.5.5.d.d.5.3.3.3.s.k.m.9.F.y.< *.:.] $._ _ ~ ^ ' ] ,.C...H L < J ",
"y.}.C.^ a.U.Y.).].Y.I.A.U. X@XXXXX.X#X X X XXX.X.X|.[.%Xl.@ { F.j.j.g.3.3.5.5.5.s.s.k.3.D./ , <.&.~ *.] ` ^ ^ ^ ~ y.a.A H =.< C ",
"n.+.* ] S.T.R._.Y._.'.'.#X#X.X@X.XXX'.'.'.'.'.'.}.|. X%XR.o F z.5.z.z.g.g.j.d.9.d.s.d.k.S.S w y.^ ~ ! ! ! ~ ! ~ J <.,.> k J , u ",
"& o * , *.Y.}.).)..X%X#X@X#X#X#X#X#X#X.X}.{.}.}.}.|. X;XZ.} 4 9.k.s.d.d.d.h.h.h.h.h.s.f.H., ) r.^ ` _ _ _ _ ` ^ ] r.U q *.*.x g ",
">.( < g 5 ( T.].R.T.R.R.R.T.U.A.U.R._.'.#X%X%X@X@X X&X Xh 2.k O.h.d.s.s.f.d.d.f.h.z.d.D.t.= ( o.J J ( J ^ ( / J T ) N *.] k A { ",
"<.*.J M m * ~ ] ^ U J H J J J J H H H ( a.S._.}.%X&X&XC.j O.R R 3.s.d.d.h.g.3.5.9.1.[ { Y f q k T | v r. .0 x } X.m y D < A o.0.",
"*.*.J 0 h ) } O.1.1.@.x g g / [ [ ) X.u * H r.T. X XY.A.M W D & 1 O.d.d.=./ J A < 1 u g 6.C.A.T.U.c.V C.K.d Y [ } < A S ( o.X.O.",
"o.^ 1 s c F R R R L T T Y z K Y ^ L F b F k J y.<.( J ) j 9 w g O 1 =.{ H < 1 g f B a r.C.r.a.a.r.n.y.( >.) C.k b w A ) ) [ } [ ",
"( < T Q 9 U ) *.>.r.r.a.y.8.4.=.<.A.a.h k >.w z w > k j 0 6 S +.% O 1 < , A E B N Q ` q.r.a.C.U.S.a.C.S.>.C.a.] b U.k Z T [ X.) ",
"< x D.W x a.U.Y.Y.C.<.>.{ ) ) / ^ / y.C.T : Z *.r.<.] , *.>.@ 9.o.g , % 0 i.a.* $.a.a.y.e.>.*.r.*.] ] r.a.y.>.a.A U.K.& A H L A ",
"= O.F.W I ) ) ] ) T T ^ ) ) ) ] ] ) T T / Z 2 ^ ] k = ..].A.; [ G.t./ k * w S.Y > ] >.] ..*.&.*.<.*.*.] ] ] ] <.*.w '.b.$ 3 k J ",
"l l z. .Y ] ^ ^ ( / ) ) ) / ) ] { ] L l e 8 # ; $ k r.).#X X^ K z.x S =.] & *.a.u A *.*.*.&.*.*.*.*.,.<.*.*.*.*.q.J *.Z.I a.e.r.",
"L.T <.X.T ] / ) / / ) ) ] / o.{ J , * i 8 8 q ( u.A.].XX.X-XS.F ) 1 >.<.C./ & <.) ; ` *.*.>.>.*.*.*.&.*.,.<.>.-.$.^ J B g / u.F.",
"!.j.] | T ] ) ) o.o.^ / ] *.( , 9 b T *.<.e.A.%X:X-X@X{.(..XA.J , { { ^ <.Z.^ 1 A * A &.*.<.r.>.*.q.e.:.*.] ^ A < = i n o.L.D.l.",
"F.D.{ M ^ ) / / ] <.] / =.J $ z v.P.P.U.).#X;X%X#X%X].Y.]._.>.c H *./ <.r.y.a.( 1 , , ! ] ^ ! ^ ^ ( ] ] ^ G < A j y F t.M.k.m.M.",
"M.D.W b ] ) ^ / ^ { ;.] / & ) Y.R.(.{..X%X#X&XOX`.}.=X'.}.a.I z %.( >.a.y.e.a.A.*.G e x ` ] ( ( ( U H A C ; A ) x } F.z.d.g.d.g.",
"f.z.N h ) ) ^ ^ T { ;.] S 9 r.].-X&X.X{.].].`.@X#X{..X-XY.( 7 ) ] ` <.p.y.y.r.r.u.^ i h H ( ( ^ H A A 1 1 S T ^ l.D.d.k.g.s.s.d.",
"h.9.v = J ] ^ ^ ^ ] o./ k h <.XX.X_._.].'.'.'.]..X%X=X.X:.q h { ^ ( *.<.*.*.*.*.{ A . @ G ] ] G A < ; & A g Y t.S.z.k.h.3.s.5.s.",
"G.1.g h A o.^ ^ / ) ) ] , i q..X].].'.`.].].`.'.'.}.;XI.H u ) =.^ ] *.] ] ] ] *.H O / F A *.J ; , - p l J n y h Y 1.k.h.5.d.j.m.",
"h.K ( h < *.] ^ / ) / ] k g ( ). X'.].].'.'.'.'.].}. X&.9 9 1.=.^ ] ^ ^ ^ ^ H ; ; A 5.@.g x *  .Y j u.^. XE.a.v.y.z Q 2.3.5.3.5.",
"9 ) a.g ; ^ *.T / ) ) ] z [ h <.(.XX}.{.'.'.'.].'..Xa.w 0 T 5.=.T J J L J < * T r.L 2.L v | U.@XJ J _.&X-X'.'..X#XK.n r #.j g a ",
"E S.B.+.h Z =.) T ) ) ^ k 9.g ) q.r.C._..X.X X X%XY.J 8 9 *.9.} H A 1 & ; J r.N.J A L @ X C.=X_.> J ].#X#X#X}.}.XX XR.| N O.g.+.",
"l ] >.8.g 1 ^ ;.T / / L w j.} j ] ] ` ] q.a.C.Y.U.$.q i g J S g = & k ] r.C.C.]   3 J ] $ ;.+XR.* U }.OX X%X#X X.X%XXX6.z z.h.O.",
"b w F w ..J < =.{ ^ J A , O./ / D k k J w A ^ T ( k s n v X.9.} 9 <.i.e.*.F 1 o F <.a.r.H & Y._.w J XX%X X.X#XXX*XXXi.V 6.O.q z ",
"J { o.x *.).< J { J k 9 e ` r.C.<.T g <.y.y.*.z <.y.Z.Q O.9.R 9 A q.A ; @   : *.n.r.o.) *.F S o.w J _.#X.X XOX#X.Xa.] B S , E o.",
") *.<.>.1 a.Y.< A 1 * T <.C.<.T h I | D ` ( / ;.y.'.&XI z T *.7 S A < F ] o.<.r.o./ ^ ( ] o.A @ , H R.@X.X#X.X-XT.>.I s g *.;.o.",
"~ ] <.r.o.& U./.k ) r.a.a.` w n  .a.Y.S.P.). X).y.l 0. .h >.a.h * H =.4.<.>.*.] *.o.) ] ] ] J - 9 J E.#X.X.X#X.Xy.U y v q ] ) ] ",
"~ ^ -.,.r./ , o.( a.C.:.U i l *.S..X#X X.X X#XXXR.S.b ) J ^ a.b q ^ / ^ / / / ) ) ] { ] ] *.! & , J U.OX.X.X%X].*.y R +.* / ..] ",
"^ ~ ( -.<.<.S 9 j <.a.J t N <.).%X-X#XXX+X#X'.}.XX#XU./ ] D N.z k / ^ T ) ) ) ) ] ) ) ) ) >.^ * w H U.#X X X%XY.) u k.O.* ^ o.] ",
"~ ^ ~ ^ ) <.o.x % &.r.q E A.XXOX XOX*X#XXX.X#X}.{..Xr.A >.F a.Y k ^ ) T ^ ) ) ) >.8.;.] ) =.^ * D H Y.#X X.X#XS.( Y J.@.y J o.] ",
"~ ^ ^ ^ ~ ^ >.^ - U o.9 r.%X X|..X.XOX&X#XXX}.+X@X&XR.D ^ T <.N - 1 F ) ^ ^ ^ ) ) o.;.o.) >.( > F ^ _.@X X X#XS.E X.D.1.0 l ] ] ",
"~ ~ ~ ~ ^ ^ ( <.z b W n ` }.#X.X#X#X#X#X%X@X X X X.X$Xp., k ] N u $ * F o./ ^ / ^ T ^ ] ) *.^ > D ] }..X X.X#XA.U / D.3.a q T ] ",
"^ ^ ( ^ ^ ( ] ^ k i c g ( _.&XOX XXXXX XOX#X%X#X+X.X#X@XT $ F m K O.g O F { ) / / / / / / ] ^ ; < <.#X X X X-XU.( F k.h.B i H ] ",
"x A J ^ J J J C = I o.e ] S.a.<.,.*.*.*.<.r.I.'.#X$X.X-XP.* F h J D.D.T & F ] ) ) ] ] ] ) T J & x a..X@X.X X#X X..8 , O.g d m , ",
"c c q 1 ; 1 w = u ^ ^ i g > > , w A A H ^ ~ ^ ] r.Y.XX%X.X^ b h g [ 5.5./ , ^ ^ T ^ ^ / T T k $ T C. XXX X#X@X*X].` q n 9 B Q k "
};
