/* XPM */
static char *bbce316452ea4446c1b24d93dc332dffft8Aha3jb7m3zfr7[] = {
/* columns rows colors chars-per-pixel */
"64 64 150 2 ",
"   c #020501",
".  c #060A04",
"X  c #090D06",
"o  c #0B0E08",
"O  c #071005",
"+  c #0A1107",
"@  c #0D130A",
"#  c #0F180A",
"$  c #11150D",
"%  c #19170F",
"&  c #131A0E",
"*  c #181D0F",
"=  c #141611",
"-  c #151C11",
";  c #1A1D14",
":  c #1C1E18",
">  c #201F16",
",  c #251F1A",
"<  c #16210F",
"1  c #172111",
"2  c #1B2315",
"3  c #1D2A16",
"4  c #1E2419",
"5  c #1F2A18",
"6  c #212316",
"7  c #212A17",
"8  c #22241A",
"9  c #2B251E",
"0  c #242B1C",
"q  c #292B1E",
"w  c #25311D",
"e  c #29311E",
"r  c #27391D",
"t  c #2A381F",
"y  c #262621",
"u  c #2D2722",
"i  c #262B21",
"p  c #2B2D23",
"a  c #2D2F28",
"s  c #322D25",
"d  c #3A2C27",
"f  c #332D29",
"g  c #273020",
"h  c #2C3320",
"j  c #293422",
"k  c #2B3522",
"l  c #2D3421",
"z  c #2D3522",
"x  c #2E3024",
"c  c #2D3225",
"v  c #2F3226",
"b  c #2F3227",
"n  c #2C3424",
"m  c #2D3525",
"M  c #2E3624",
"N  c #2D3224",
"B  c #2D3A24",
"V  c #2E3A24",
"C  c #2F3329",
"Z  c #303224",
"A  c #303225",
"S  c #313225",
"D  c #323526",
"F  c #323526",
"G  c #363827",
"H  c #333C27",
"J  c #313B26",
"K  c #303029",
"L  c #30312B",
"P  c #303728",
"I  c #30362A",
"U  c #33372A",
"Y  c #353528",
"T  c #353629",
"R  c #35372A",
"E  c #34352A",
"W  c #38352D",
"Q  c #303829",
"!  c #343B2A",
"~  c #3A3D2D",
"^  c #383E2D",
"/  c #393E2D",
"(  c #3A3B2D",
")  c #383730",
"_  c #3C3631",
"`  c #3C3B30",
"'  c #3A3D33",
"]  c #3D3F34",
"[  c #3E3F35",
"{  c #3C3C32",
"}  c #3E3B38",
"|  c #403F31",
" . c #423F35",
".. c #423D33",
"X. c #453C39",
"o. c #483C3A",
"O. c #314025",
"+. c #344228",
"@. c #354229",
"#. c #39462A",
"$. c #38452C",
"%. c #3C442F",
"&. c #3A412E",
"*. c #3C4031",
"=. c #3F4333",
"-. c #3E4333",
";. c #414634",
":. c #424636",
">. c #424335",
",. c #484537",
"<. c #484037",
"1. c #434936",
"2. c #454B36",
"3. c #414D34",
"4. c #434C36",
"5. c #45423A",
"6. c #44433A",
"7. c #494538",
"8. c #4B453B",
"9. c #45493A",
"0. c #454939",
"q. c #484A39",
"w. c #4A4D3B",
"e. c #4A4B3C",
"r. c #524A3F",
"t. c #47503A",
"y. c #47503A",
"u. c #4A503D",
"i. c #4B513D",
"p. c #4D4C43",
"a. c #524C41",
"s. c #4E5441",
"d. c #4C5042",
"f. c #515442",
"g. c #505244",
"h. c #525444",
"j. c #53514A",
"k. c #53514A",
"l. c #5B554D",
"z. c #57594B",
"x. c #5B5D4D",
"c. c #5F5A52",
"v. c #625B55",
"b. c #675E59",
"n. c #6A5E5A",
"m. c #656857",
"M. c #6B6358",
"N. c #6A635A",
"B. c #696A5A",
"V. c #706562",
/* pixels */
"p % a 9.1.Y 0 Y %.l 0 $ @ B B.g.u.7 . . @ i u = + p L i 8 $ c 8   X @ o $ - +   : ;.p w._ p 0 0 X     . . r J #.%.1 q 7.s.p 8 p ",
"` u d p w 2 & @ D c ; . + *.M.f.m @ o ; & 4 y 4 & $ $ - - 8 : $ .     . # - p p 2 A 0 | 8 $ p 0 @   X @ @ 2 ^ 3.@.0 0 h ,.q.;.^ ",
"8 9 9 G - & w + @ o X   . 2 *.^ 4 X - ; @ 1 + & - X . @ 0 Q p u ;     @ - L 5.' 2 & & q Y $ c 4 8 4   @ - $ a 2.t.m < @ % 6 2 A ",
": o X 8 0 8 k 2 4 $ 2 @ . X ' j.P 0 4 - @ 1 2 = @ X @ @ - - @ 8 p @   & 4 ; - c $ ; - - A & ; a p h @ @ o @ & 2 m p $ X . @ 2 & ",
"q 2 - X 2 1 2 0 k 1 2 2 @   $ p P P p $ + X - 0 -   X & - @ X - 0 @ . o ; @ -  .p 8 ' @ : 4 @ ; 2 8 2 @ o @ o X + 1 0 0 - p l p ",
"h & $ X X . @ J 8 c D - X + @ 2 m ( 4 = - o - p E - X . - $ @ : - 1 o = & : ; 0 q 4 p 8 & $ X X $ + X o o X @ X - 4 t V - 8 c f ",
"$ @ @ $ @ @ . 0 2 4 q $ X + & 2 0 D & = o @ # - ' 8       . @ p 4 c @ $ 8 { ; + % 4 @ - ; @ 2 - @ . X # @ + X X @ 2 ;.@.2 - @ $ ",
"- 2 3 X + & 2 h 1 @ - + . + @ @ 5 w 2 X       . i @ . X . $ # . ; ..y = % $ o   % { { p : X ; & + - 2 @ @ X . . & & 9 h 3 7 3 0 ",
"0 H 0 X @ @ - 8 + + @ & + X X + $ e 0 X   . + + ; 0 @ + ; $ .   ; ..p =           $ q 8 : @   # @ @ $ . . # X . +     $ @ w 0 1 ",
"$ e 2 + @ . o X < 2 & & 2   & & 1 & $ X . X . + - : & . X @ @ $ . % 0 8 - X @ @         X X + & - @ $ X   @ @ .     .   @ - p 0 ",
"& < X 1 - 1 2 @ 2 0 & 3 2 X X & 0 : # & . . ; @ - $ o . . o o X   $ ' >.:.0 # .   X - 1 & X X o .   . .   . . .           X & $ ",
"X 0 @ 2 8 0 0 & 2 2 1 0 w 0 X & 0 4 ; - X o - 4 p 8 @     o o.E y s Y m >.6.-   X X 7 6 0 @ @         . . . X .   . .       . $ ",
"X - X + $ $ q 2 - w w 5 ^ &.2 $ * & # 1 4 2 y 0 2 & : 8 X o ( 9.c._ - $ 6 { 0 X   X 2 2 5 1 & @ @ .         @ $   . + @ .       ",
"3 @ - & X $ ; 0 - 2 i & $ 2 h 2 @ & + 3 c 8 2 . o ; 8 ^ 2 X   + 0 ..` % $ - $ X . . 2 7 @ 2 @ # - X . X o . . X .     . .   . X ",
"^ + + @   . . 1 #   X + - P 0 - X & 8 1 - - @ @ $ >.5.W p . X $ @ Y q $ - @ X - -   $ & . > 6 1 - @ o $ ; #   . X       X X + 8 ",
"- X X .     . @ X       X ; & @ + @ & & . X . - & 8 l.V.v.P f 8 2 8 - : + X @ & 2 @ X @ X @ $ 4 ` c X X @ @   .   X     . + @ $ ",
". . @ X O X . . X X .         . @ & & 2 - . . @ # X E l.p.&.~ p ,.8 8 9 6 $ & + + + @ & . @ 2 : 8 2 X X + @ & @ . @ X     . - @ ",
"@ @ @ & X + @ X                 @ $ 2 ( 2 X @ & 2 + X p H e.h.0 ,.r.W 8.Q H 0 - @     . X c 6.' - X X & - @ $ @   X .       @ @ ",
"@ 2 0 &     . .     X .     .   - 4 0 e q 4 @ X X X   . 0 0 c e.Y 8.e.p 1 0 2 @       X @ 0 2 - @ 1 & - - $ o . .   . .     o + ",
"o @ g 5 @ $ . .     X $ + X .   @ - & c 3 0 0 4 X @ X @ @ $ = ` 8 $ 6 8 + & $ & & + : 8 @ @ X # @ 2 2 0 i # # - 1 # $ +     X o ",
"@ . . X X & + $ . . X - @ X         . W c h 0 4 $ ; ; - @ . . X - $ % @ X & 1 B H 2 c 5 2 @ X - $ - ( 8 - @ - 0 4 $ & + .       ",
".       . . . 2 0 p & X X @ .   . X & - & & 0 1 $ @ - $ @ + .     & + o # 1 1 4 2 D z.6.p 2 0 h a * p >.{ - + & - X . . $ +     ",
"        . . X 6 0 2 @ X @ 1 +   . . @ m B 1 1 2 $ 2 r.0 @ . 8 @ X - p 0 2 m - 0 $ 2 ;.b.u - P D ^ 4 2 h ' 4 . X X . o   = 4 .   ",
"        X o . . $ 2 : 8 ( p 1 $ X     p H 3 2 r 1 X 0 3 + . 2 6 ; ; s @.6 :.i ' a 4 - H >.h H 2 p ; .   # - @ . o X o o . 8 ; . ",
"  X @ o $ - +   : ;.p 9.W p 0 0 X       X r J #.@.- 9 >.q.0 4 h s & p :.-.Y 0 H ^ e 8 & & ^ m.p.w.2 . . @ i y $ @ 8 a 0 4 = c 8 ",
".       @ - p p 2 c 0 | 8 $ p 0 @   X @ @ 2 ^ 3.@.0 0 h 7.q.;.~ ( u d p w 2 & @ D c ; . + *.M.f.m @ o 2 & 4 y 4 $ $ $ - - 8 : $ ",
"-   . @ - L 5.' 2 & & q Y $ c 4 8 4   @ - $ a 2.t.m < @ - 6 2 h 0 9 9 G - & w + @ o X   . 2 *.^ 4 X - ; @ 1 + & = X . @ 0 Q u u ",
"q @   & 4 ; - c $ ; - - A & ; a p h @ @ o @ & 2 m p $ X . @ 2 & : o X 8 0 8 k 2 4 $ 2 @ . X ' j.P 0 4 - @ 1 2 = o X @ @ & - @ 8 ",
"0 @ . o ; @ -  .p 8 ' @ : 4 @ ; 2 8 2 @ o @ o X + 1 0 0 - p l p p 2 - X 2 1 2 0 k 1 2 2 @   $ p P P p $ + X - 0 -   X & - @ X $ ",
"- 1 o = & : ; 0 q 4 p 8 & $ X X $ + X o o X @ X - 4 t V - 8 c f D & $ X X . @ J 8 c D - . + @ 2 m ( 4 = - o - p E - X . - $ @ ; ",
"; c o $ 8 { ; + % 4 @ - ; @ 2 - @ . X # @ + X X @ 2 ;.@.2 - @ $ & @ @ $ @ @ . 0 2 4 q $ X + & 2 0 D & = o $ # - ' 8       . @ p ",
";  .y = % $ o   % { { p : X ; & + - 2 @ @ X . . & & 9 h 3 7 3 5 1 2 3 X + & 2 h 1 @ - + . + @ @ 5 w 2 X       . i @ . X . = # . ",
"> | p =           $ q 8 : @   $ @ @ $ . . # X . +     $ @ w 0 1 0 H 0 X @ @ - 8 + + @ & + X + + $ e 0 X   . + + ; 0 @ + ; $ . . ",
". % 0 8 - X @ @         X X + & - @ $ X   @ @ .     .   @ - p 8 $ e 2 + @ . o X < 2 & & 2   & & 1 & $ X . X . + - : & X X @ @ $ ",
"  $ ' >.:.0 # .   X - 1 & X X o .   . .   . . .           X & $ & < X 1 - 1 2 @ 2 0 & 3 2 X X & 0 : # & . . ; @ - $ o . . o o X ",
"u s Y c >.6.-   . X 7 6 0 @ @         . . . X .   . .       . @ X 0 @ 2 8 0 0 & 2 2 1 0 w w X & 0 4 ; - X o - 4 p 8 @     o o.` ",
"v._ - $ 6 { 0 X   X 2 2 5 1 & @ @ .         @ $   . + @ .       . - X + $ $ q 2 - w w 5 ^ &.2 $ * & # 1 4 2 y 0 2 & : 8 X o ` =.",
"p ..` % $ - $ X . . 2 7 @ 2 @ # - X . X o . . X .     . .   . @ 2 @ - & X $ ; 0 - 2 i & $ 2 g 2 @ & @ 3 c 8 2 . o ; 8 ^ 2 X . X ",
"o Y q $ - @ X - -   $ & . > 6 1 - @ o $ ; @ - $ @ .       . + 0 ^ X + @   . . 1 #   X X - P 0 - X & 8 1 - - @ @ $ >.5.W p . X % ",
"2 8 - : + X @ & 2 $ X @ X @ $ 8 { a X X + 4 Q a 8 ;     o + @ $ - X X .     . @ .       X ; & @ + @ & & . X . - & 8 l.V.v.Y f 8 ",
"7.8 8 0 2 $ & + + + @ & . @ 2 ; 8 2 . o @ & 2 $ 8 c $   $ 2 2 + . . @ X O X . . X X .         . @ & & 2 - . . @ # X E l.p.%.~ 0 ",
"r.r.W 5.Q H 0 - @     X X h 6.{ 0 -   . $ - & . & 0 & . X : = @ @ @ @ & X + @ X                 @ $ 2 ( 2 X @ & 2 + X p H q.h.h ",
"D 8.e.p 1 0 2 @     . X @ h 0 - p p = X X - - @ = 1 - o $ $ @ X @ 2 0 &     . .     X .     .   - 4 0 e q 4 @ X X X   . 0 0 c a.",
": $ 2 0 1 & @ @ @ @ ; 4 @ @ $ $ - ' b .   . . X u 8 0 $ $ : ( : X % Q 0 # $ . .     X $ + X .   @ - & A 7 0 0 4 X @ X @ @ $ - { ",
"0 & @ 2 @ . + & @ 5 0 2 X     . . i -   .   X & @ - W 8 = - : %   $ { ' 0 8 o X     @ 2 @ X         . W c h 0 4 $ ; ; - @ X . X ",
"p $ X @ $ X + + . & 0 h + .   X X - 0 @ X % = X   % 8.s = .         & Y c 8 $   + + # - X X + .   .   o $ & 0 1 $ + . + + o .   ",
"X # & & & 4 . # & 1 2 - X   X . + & 0 - + @ & o $ . - 0 8 $   + +   . . . X @ X $ 1 + $ +   $ & .         + 2 2 & 1 @ X + @ @ @ ",
"+ & w < & 2 X X & 2 ; + & X . = @ - $ o .   o o X   X c ( { 0 $ +     $ $ @ X X @ @ . X .   . . .           - 3 1 @ 8 . & & 1 - ",
"$ & 3 & 0 5 2 X $ q 0 ; - X X - 2 8 8 $     X u a % , | ^ :.=.;   . X 0 6 p @ @ .       . X   X .     .     & 0 & 2 2 + . $ 0 i ",
"2 - 0 0 5 H ;.4 @ * & $ 2 - 2 ; i 0 2 = - . X <.h.l.X.: $ 8 6.c X   . & 1 0 - $ @ X .         + $ . . X @ . - 0 1 0 0 l @ $ 0 2 ",
"i - 0 m 1 1 - h 2 & & + 1 h 0 8 $ . $ ; ( 8 X X + c 8.E : o 2 2 X     2 0 & 2 $ @ - + . . . . . o .     X X @ 0 h 3 Q ^ 0 $ * 1 ",
"2 - X + @ $ p 0 4 X @ 2 2 4 2 $ X o Y } L 0 .   $ X s Y - & $ X @ -   @ 2 X - 2 & - + X @ ; $ . . X .     X @ 2 0 - @ - g 4 @ & ",
"& X       X 0 2 & + @ - & . + X - - 8 p.v.l.a 8 : & 0 8 > @ X @ - 0 $ X $ X @ - 8 Y p @ X @ #       .     . X   . X $ P 0 2 X @ ",
". X X . .     . . @ $ - - $ . . + $ X E n.c.;.^ p ` 2 - 8 1 @ & X + @ @ & X X - % 8 p @ . X $ @ @ . o o             . - & @ @ + ",
"X                 @ $ - a 0 . @ $ 2 @ X s H 9.f.D ( a.p e.C m 5 - $ .   X X 4 ' { 6 X X @ $ @ $ & . X .       X .         . @ @ ",
"X     .           $ 2 2 l 0 2 @ X @ o   X 0 J m ;.D a.r.( 2 k 0 - .     . X q D 8 $ & @ - 1 & @ .     . .                   @ $ ",
".     X @ @ . X   $ 2 1 p 0 0 2 2 X X . . @ 2 = e.a ; q q @ & @ @ o . = : $ $ X @ + 2 2 2 i & @ # & X @ +       X X     .   % 0 ",
"$     . - $ X     . X . f P 0 g 0 & - ; 2 & . . @ 2 $ % - X @ - w H - 4 i - @ X & - & P 0 2 & & 0 4 $ - @       X $ @ X .   + - ",
"1 4 8 & @ X X X     . @ - 2 1 0 2 & @ $ @ @ X X     $ @ X @ & 1 0 0 c d.' p ; ; 2 i $ h ( P - + - 2 @ . X $ X X X & @ X         ",
"2 k 0 - . X & +   . . $ 0 0 & 2 2 & & ,.p $ . & @ . & 2 8 - 0 1 4 @ - 9.M._ - Q ^ ;.8 8 D :.i X . o .     1 w p ; X . @ X     . ",
"X $ & % - c p & @ X     0 3.5 & w 2 X h 0 +   2 2 % % f &.2 >.p m c : 4 { >.8 h 2 0 0 + . = 2 X . o . . . 1 0 - $ X # 1 @   .   ",
"  $ >.p ;.` Y 0 0 +     . o 5 V O.@.& ; G -.2 & q p % 8 ^ *.( H W ^ 0 2 - 0 H x.e.:.p .   X 4 8 o X 4 @ . . $ 8 6 0 E A 2 & X   ",
"8 - D 0 *.p - 8 c $   . @ @ 1 ^ %.@.e 0 H w.e.9.^ >.8 f E J 0 - $ H ^ 0 $ X h N.x.-.- X & - 2 a 8 & - $ @ . $ ;.0 2.` a 8 h @   ",
"p.0 : ; p Y & C 4 - -   o ; $ s u.4.e 1 $ 6 A 0 H q u d Z 1 & e + @ $ .   . 0 q.%.8 X @ 4 $ 2 @ $ $ X   2 b - h p { p $ 8 h &   "
};
